<svg xmlns="http://www.w3.org/2000/svg" width="82.417" height="86.801" viewBox="0 0 82.417 86.801">
  <defs>
    <style>
      .cls-1 {
        fill: #3b62fe;
      }
    </style>
  </defs>
  <g id="Group_351" data-name="Group 351" transform="translate(0)">
    <path id="Path_640" data-name="Path 640" class="cls-1" d="M84.021,128.746c-3.36-1.949-13.246-2.752-19.084-.06a1.4,1.4,0,1,0,1.169,2.536c5.067-2.336,14.061-1.483,16.513-.06a1.4,1.4,0,0,0,1.4-2.416Zm0,0" transform="translate(-52.275 -105.532)"/>
    <path id="Path_641" data-name="Path 641" class="cls-1" d="M84.02,169.5c-3.357-1.948-13.241-2.749-19.083-.061a1.4,1.4,0,1,0,1.167,2.536c5.072-2.334,14.066-1.481,16.514-.061a1.4,1.4,0,1,0,1.4-2.415Zm0,0" transform="translate(-52.274 -139.406)"/>
    <path id="Path_642" data-name="Path 642" class="cls-1" d="M84.02,87.981c-3.357-1.947-13.241-2.749-19.083-.061A1.4,1.4,0,0,0,66.1,90.458c5.072-2.334,14.066-1.482,16.514-.061a1.4,1.4,0,0,0,1.4-2.416Zm0,0" transform="translate(-52.274 -71.648)"/>
    <path id="Path_643" data-name="Path 643" class="cls-1" d="M64.937,47.167A1.4,1.4,0,1,0,66.106,49.7c5.067-2.336,14.061-1.483,16.513-.061a1.4,1.4,0,0,0,1.4-2.415c-3.36-1.95-13.246-2.752-19.084-.061Zm0,0" transform="translate(-52.275 -37.045)"/>
    <path id="Path_644" data-name="Path 644" class="cls-1" d="M222.131,131.16c2.451-1.422,11.446-2.276,16.513.061a1.4,1.4,0,1,0,1.169-2.537c-5.837-2.691-15.724-1.889-19.084.061a1.4,1.4,0,0,0,1.4,2.415Zm0,0" transform="translate(-179.373 -105.53)"/>
    <path id="Path_645" data-name="Path 645" class="cls-1" d="M222.13,171.913c2.448-1.421,11.442-2.273,16.514.061a1.4,1.4,0,0,0,1.167-2.537c-5.843-2.688-15.727-1.886-19.083.061a1.4,1.4,0,0,0,1.4,2.416Zm0,0" transform="translate(-179.373 -139.405)"/>
    <path id="Path_646" data-name="Path 646" class="cls-1" d="M222.13,90.395c2.448-1.421,11.442-2.273,16.514.061a1.382,1.382,0,0,0,.583.129,1.4,1.4,0,0,0,.585-2.665c-5.843-2.689-15.727-1.886-19.083.061a1.4,1.4,0,1,0,1.4,2.415Zm0,0" transform="translate(-179.373 -71.647)"/>
    <path id="Path_647" data-name="Path 647" class="cls-1" d="M222.131,49.643c2.451-1.422,11.446-2.276,16.513.06a1.4,1.4,0,1,0,1.169-2.536c-5.837-2.692-15.724-1.889-19.084.06a1.4,1.4,0,0,0,1.4,2.416Zm0,0" transform="translate(-179.373 -37.045)"/>
    <path id="Path_648" data-name="Path 648" class="cls-1" d="M77.277,16.611H73.1V9.8a4.8,4.8,0,0,0-1.615-3.562A5.68,5.68,0,0,0,67.633,4.77H67.62l-1.117,0c-.147-2.507-1.862-2.958-4.2-3.569l-.052-.013c-6.115-1.6-19.491-1.856-25.7.9C32.954.493,27.368.117,24.234.037A53.44,53.44,0,0,0,10.848,1.192l-.051.013c-2.335.611-4.051,1.061-4.2,3.569l-1.12,0H5.466A5.678,5.678,0,0,0,1.615,6.236,4.8,4.8,0,0,0,0,9.8V43.687c0,4.954,4.924,7.553,9.788,7.559l26.758.033h.009l26.758-.033c4.864-.007,9.788-2.605,9.788-7.559V34.939a1.4,1.4,0,0,0-2.793,0v8.748c0,3.66-4.186,4.993-7,5l-25.364.032,0-3.758H63a3.4,3.4,0,0,0,3.512-3.269V7.336l1.115,0h.006a2.771,2.771,0,0,1,1.879.718A2.356,2.356,0,0,1,70.309,9.8V28.974a1.4,1.4,0,0,0,2.793,0v-9.8h4.175a2.261,2.261,0,0,1,2.347,2.158V47.165c0,3.079-3.1,7.64-9.759,7.649l-20.18.019c-9.4.006-9.4,6.284-9.4,8.347v.289c-4.305.532-7.609,3.485-7.609,7.036V79.68c0,3.927,4.039,7.122,9,7.122s9-3.195,9-7.122V70.5c0-3.552-3.3-6.5-7.609-7.036V63.18c0-2.925.511-5.781,6.611-5.785l20.182-.019c7.75-.011,12.548-5.309,12.548-10.211V21.331a4.949,4.949,0,0,0-5.14-4.72ZM61.489,3.656l.051.013a8.661,8.661,0,0,1,2.009.657c.047.034.173.126.173.807v33.4a45.842,45.842,0,0,0-14.613-1.7A43.945,43.945,0,0,0,37.95,38.474V4.313c5.454-2.313,18-2.1,23.539-.656ZM35.158,42.4h-8.71a1.286,1.286,0,1,0,0,2.562h8.708l0,3.758-25.36-.032c-2.814,0-7-1.338-7-5V9.8A2.356,2.356,0,0,1,3.588,8.05a2.782,2.782,0,0,1,1.883-.718l1.117,0V41.688a3.4,3.4,0,0,0,3.512,3.27H20.882a1.286,1.286,0,1,0,0-2.562H10.1a.723.723,0,0,1-.719-.708v-.415c8.283-3.07,21.143-1.936,25.777-.055Zm0-3.921a43.956,43.956,0,0,0-11.163-1.64,45.871,45.871,0,0,0-14.614,1.7V5.133c0-.681.126-.773.173-.807a8.628,8.628,0,0,1,2.009-.657l.05-.013C17.159,2.21,29.709,2,35.157,4.315v34.16ZM63,42.4H37.951V41.218c4.631-1.882,17.486-3.017,25.771.055v.416A.723.723,0,0,1,63,42.4ZM47.892,70.505V79.68c0,2.515-2.787,4.56-6.212,4.56s-6.212-2.046-6.212-4.56V70.505c0-2.162,2.061-3.976,4.816-4.442v5.283a1.4,1.4,0,0,0,2.793,0V66.063c2.755.466,4.815,2.281,4.815,4.442Zm0,0" transform="translate(0 -0.001)"/>
  </g>
</svg>
