<svg xmlns="http://www.w3.org/2000/svg" width="94.613" height="86.801" viewBox="0 0 94.613 86.801">
    <defs>
        <style>
            .cls-1{fill:#3b62fe}
        </style>
    </defs>
    <path id="global2" d="M94.613 37.562A5.84 5.84 0 0 0 88.543 32h-.163a42.314 42.314 0 0 0-15.8-20.027 47.741 47.741 0 0 0-27.215-8.304c-.637 0-1.288.015-1.944.041A6.074 6.074 0 0 0 37.693 0a5.839 5.839 0 0 0-6.07 5.563v.055A45.9 45.9 0 0 0 9.281 20.041a38.714 38.714 0 0 0-4.607 43.591 5.344 5.344 0 0 0-1.907 4.044 5.843 5.843 0 0 0 6.076 5.564 6.5 6.5 0 0 0 2.509-.5A47.164 47.164 0 0 0 45.365 86.8a48.14 48.14 0 0 0 24.929-6.834c.063.028.125.057.189.081a5.276 5.276 0 0 0 5.154-.987c.019-.014.039-.028.057-.044l.3-.245 5.643 5.814a2.907 2.907 0 0 0 3.848.207l5.7-4.637a2.412 2.412 0 0 0 .916-1.726 2.359 2.359 0 0 0-.684-1.812l-5.634-5.81.3-.242a.847.847 0 0 0 .055-.047c2.108-1.911 1.955-3.687 1.676-4.576a4.621 4.621 0 0 0-1.767-2.291 38.829 38.829 0 0 0 4.693-18.416c0-.8-.028-1.617-.083-2.456a5.622 5.622 0 0 0 3.959-5.22zm-56.919-35a3.2 3.2 0 0 1 3.259 2.656c0 .017 0 .035.007.052a2.624 2.624 0 0 1 .017.293 3.293 3.293 0 0 1-6.56 0 3.152 3.152 0 0 1 3.277-3zM5.561 67.677a3.157 3.157 0 0 1 3.282-3.005 3.015 3.015 0 1 1 0 6.007 3.155 3.155 0 0 1-3.282-3.002zm83.726 10.6l-5.606 4.563-6.527-6.726a1.451 1.451 0 0 0-1.043-.429 1.47 1.47 0 0 0-.927.323l-1.314 1.07a2.606 2.606 0 0 1-2.306.609A3.03 3.03 0 0 1 70 75.178L68.9 65.3c-.083-1.207.128-2.065.595-2.417.484-.364 1.493-.382 2.845-.05l.057.013 10.194 2.09a3.31 3.31 0 0 1 2.537 1.718c.235.748-.37 1.508-.93 2.022l-1.314 1.07a1.244 1.244 0 0 0-.467.883 1.216 1.216 0 0 0 .351.927zm-5.745-15.763c-.114-.028-.227-.056-.344-.079l-7.617-1.562A29.652 29.652 0 0 0 80.06 45.24a30.21 30.21 0 0 0-8.79-21.121c-.474-.5-1.616-1.57-1.68-1.612a36.273 36.273 0 0 0-24.226-9.056 36.824 36.824 0 0 0-18.617 4.975 1.431 1.431 0 0 0-.378.226c-9.449 5.685-15.7 15.48-15.7 26.588 0 .939.048 1.869.135 2.787a1.15 1.15 0 0 0 .017.166 29.515 29.515 0 0 0 3.114 10.5 1.243 1.243 0 0 0 .173.332c4.779 9.062 14.115 15.743 25.266 17.529l.068.011a38.046 38.046 0 0 0 13.074-.212 1.335 1.335 0 0 0 1.152-1.5A1.4 1.4 0 0 0 52 73.829a34.618 34.618 0 0 1-6.637.634q-1.553 0-3.069-.135a11.821 11.821 0 0 0 1.9-6.307 15.032 15.032 0 0 0-2.4-8.568c-2.443-3.667-6.179-5.123-9.99-3.894-3.611 1.162-5.737.233-7.793-.666a8.31 8.31 0 0 0-4.54-1.015 7.016 7.016 0 0 0-3.8 2.03 27.077 27.077 0 0 1-1.891-6.574c4.937-.123 5.668-3.142 6.263-5.616.746-3.1 1.519-6.31 8.926-7.687a8.043 8.043 0 0 0 5.364-3.764 10.294 10.294 0 0 0 1.475-6.146A8.073 8.073 0 0 0 31 19.145a34.5 34.5 0 0 1 28.213-.232 18.624 18.624 0 0 0-6.179.307A12.053 12.053 0 0 0 45.3 24.3a9.811 9.811 0 0 0-1.245 5.56 1.354 1.354 0 0 0 1.45 1.23 1.332 1.332 0 0 0 1.341-1.33 7.534 7.534 0 0 1 .876-4.182 9.312 9.312 0 0 1 5.993-3.873c4.246-.965 9.259.036 14.141 2.818a28.045 28.045 0 0 1 9.4 19.878v.087q.01.373.01.748a27.311 27.311 0 0 1-4.542 15.041l-.092-.019-.058-.012-.055-.011c-2.051-.412-3.664-.19-4.8.665a3.725 3.725 0 0 0-.7.7s-.01.007-.014.012c-2.175-1.6-2.563-4-1.192-7.283 1.493-3.571 1.511-6.691.054-9.27-2.5-4.42-8.887-6.354-13.477-7.424a6.342 6.342 0 0 1-3.336-1.977 1.485 1.485 0 0 0-1.966-.174 1.211 1.211 0 0 0-.189 1.8 9.12 9.12 0 0 0 4.8 2.83c6.466 1.507 10.179 3.452 11.685 6.119 1.089 1.928 1.029 4.275-.182 7.175-2.55 6.106.38 9.259 2.91 10.759a8.718 8.718 0 0 0 0 1.319v.046l.195 1.746a32.527 32.527 0 0 1-7.9 4.636 1.236 1.236 0 0 0-.62 1.837 1.506 1.506 0 0 0 1.818.478 35.484 35.484 0 0 0 7.043-3.893l.568 5.1a6.163 6.163 0 0 0 .969 2.724 45.237 45.237 0 0 1-22.825 6.075 44.281 44.281 0 0 1-31.8-13.071 5.259 5.259 0 0 0 1.348-3.491 5.842 5.842 0 0 0-6.07-5.568 6.581 6.581 0 0 0-1.748.236 36.463 36.463 0 0 1-4.3-17.107C2.792 28.354 14.863 13.256 32.3 8.11a6.158 6.158 0 0 0 5.394 3.016 5.924 5.924 0 0 0 6.026-4.863c.555-.02 1.105-.031 1.646-.031 18.4 0 34.437 10.571 40.309 26.428a5.523 5.523 0 0 0-3.208 4.9 5.78 5.78 0 0 0 5.41 5.534c.044.731.067 1.44.067 2.142a36.432 36.432 0 0 1-4.4 17.276zM27.706 20.91a5.626 5.626 0 0 1 5.315 5.4c.248 3.076-1.408 6.614-4.609 7.21-9.188 1.709-10.292 6.3-11.1 9.645-.6 2.477-.883 3.656-3.806 3.622q-.044-.77-.045-1.55c0-10.138 5.664-19.084 14.243-24.328zm11.474 53a31.812 31.812 0 0 1-22.261-15.456c2.453-2.748 3.586-2.254 5.889-1.246a12.561 12.561 0 0 0 9.92.77c3.443-1.11 5.664 1.286 6.682 2.813 2.467 3.7 2.895 9.816-.23 13.121zm49.736-33.364l-.082.008a3.58 3.58 0 0 1-.291.013 3.014 3.014 0 1 1 3.277-3.005 3.116 3.116 0 0 1-2.9 2.984zm0 0" class="cls-1" transform="translate(.001)"/>
</svg>
