<svg xmlns="http://www.w3.org/2000/svg" width="44.052" height="86.801" viewBox="0 0 44.052 86.801">
    <defs>
        <style>
            .cls-1{fill:#3b62fe}
        </style>
    </defs>
    <g id="Group_310" data-name="Group 310">
        <g id="Group_309" data-name="Group 309">
            <path id="Path_652" d="M166.629 24.822V9.36a3.95 3.95 0 0 0 3.5-3.919v-1.5A3.949 3.949 0 0 0 166.187 0h-36.163a3.949 3.949 0 0 0-3.944 3.944v1.5a3.95 3.95 0 0 0 3.5 3.919v15.458a9.734 9.734 0 0 0 3.243 7.249l12.686 11.341-12.683 11.342A9.735 9.735 0 0 0 129.583 62v15.441a3.95 3.95 0 0 0-3.5 3.919v1.5a3.949 3.949 0 0 0 3.944 3.944h36.163a3.949 3.949 0 0 0 3.944-3.944v-1.5a3.95 3.95 0 0 0-3.5-3.919V62a9.734 9.734 0 0 0-3.243-7.249L150.7 43.412l12.686-11.342a9.733 9.733 0 0 0 3.243-7.248zM130.024 5.927a.487.487 0 0 1-.486-.486v-1.5a.487.487 0 0 1 .486-.486h36.163a.487.487 0 0 1 .486.486v1.5a.487.487 0 0 1-.486.486zm36.163 74.946a.487.487 0 0 1 .486.486v1.5a.487.487 0 0 1-.486.486h-36.163a.487.487 0 0 1-.486-.486v-1.5a.487.487 0 0 1 .486-.486zm-5.106-23.542a6.273 6.273 0 0 1 2.09 4.669v15.415h-30.13V62a6.273 6.273 0 0 1 2.09-4.671l2.728-2.439h20.495zm-6.6-5.9h-12.754l6.379-5.7zm-6.379-10.342l-6.722-6.009h13.451zm15.065-16.271a6.273 6.273 0 0 1-2.09 4.671l-2.377 2.133h-21.188l-2.382-2.129a6.273 6.273 0 0 1-2.09-4.671V9.386h30.13z" class="cls-1" data-name="Path 652" transform="translate(-126.08)"/>
            <g id="Group_366" data-name="Group 366" transform="translate(9.82 61.383)">
                <g id="Group_311" data-name="Group 311">
                    <path id="Path_653" d="M178.176 362.072a1.729 1.729 0 0 0-1.729 1.729v.519a1.729 1.729 0 0 0 3.458 0v-.52a1.729 1.729 0 0 0-1.729-1.728z" class="cls-1" data-name="Path 653" transform="translate(-176.447 -362.072)"/>
                </g>
            </g>
            <g id="Group_367" data-name="Group 367" transform="translate(9.82 67.089)">
                <g id="Group_313" data-name="Group 313">
                    <path id="Path_654" d="M178.176 395.729a1.729 1.729 0 0 0-1.729 1.729v5.533a1.729 1.729 0 1 0 3.458 0v-5.533a1.729 1.729 0 0 0-1.729-1.729z" class="cls-1" data-name="Path 654" transform="translate(-176.447 -395.729)"/>
                </g>
            </g>
        </g>
    </g>
</svg>
