<svg xmlns="http://www.w3.org/2000/svg" xmlns:xlink="http://www.w3.org/1999/xlink" width="435.53" height="434.318" viewBox="0 0 435.53 434.318">
    <defs>
        <style>
            .cls-1{clip-path:url(#clip-path)}.cls-2{fill:url(#radial-gradient)}.cls-3{fill:#76c5ef}.cls-4{fill:#449fd1}.cls-5{fill:#a4e2f9}.cls-6{fill:#57b2e7}.cls-7{fill:#ebf9fe}.cls-8{fill:#fff}.cls-9{fill:#cfeef6}.cls-10{fill:#244485}.cls-11{fill:#3656a6}.cls-12{fill:#4090cc}.cls-13{fill:#5daae2}.cls-14{fill:#eb2762}.cls-15{clip-path:url(#clip-path-2)}.cls-16{fill:url(#radial-gradient-2)}.cls-17{clip-path:url(#clip-path-3)}.cls-18{fill:url(#radial-gradient-3)}.cls-19{fill:#66b4e7}.cls-20{fill:#3e91c7}.cls-21{fill:#e8e7e6}.cls-22{fill:#f7f7f7}.cls-23{fill:#f25282}.cls-24{clip-path:url(#clip-path-4)}.cls-25{fill:url(#radial-gradient-4)}.cls-26{fill:#8a76ad}.cls-27{fill:#385f9e}.cls-28{fill:#ef2954}.cls-29{clip-path:url(#clip-path-5)}.cls-30{fill:url(#radial-gradient-5)}.cls-31{fill:#4f6aae}.cls-32{fill:#3f5b9e}.cls-33{fill:#e01c39}.cls-34{clip-path:url(#clip-path-6)}.cls-35{fill:url(#radial-gradient-6)}.cls-36{fill:#233d73}.cls-37{fill:#e4e4e3}.cls-38{fill:#304e93}.cls-39{fill:#377eb5}.cls-40{fill:#60afe4}.cls-41{fill:#4e96d4}.cls-42{fill:#cceefa}.cls-43{fill:#454547}.cls-44{fill:#1f2f58}.cls-45{fill:#223e73}.cls-46{clip-path:url(#clip-path-7)}.cls-47{fill:url(#linear-gradient)}.cls-48{clip-path:url(#clip-path-8)}.cls-49{fill:url(#linear-gradient-2)}.cls-50{clip-path:url(#clip-path-9)}.cls-51{fill:url(#linear-gradient-3)}.cls-52{fill:#4ba7c7}.cls-53{fill:#bce9f1}.cls-54{clip-path:url(#clip-path-10)}.cls-55{fill:url(#radial-gradient-7)}.cls-56{clip-path:url(#clip-path-11)}.cls-57{fill:url(#radial-gradient-8)}.cls-58{fill:#253f7c}.cls-59{fill:#c2d5da}.cls-60{fill:#d0e5ea}.cls-61{fill:#d9eff5}.cls-62{fill:#304f9e}.cls-63{fill:#3b83c3}.cls-64{fill:#c5285e}.cls-65{fill:#16253a}.cls-66{fill:#192c4b}.cls-67{fill:#fad517}.cls-68{fill:#f5f122}.cls-69{clip-path:url(#clip-path-12)}.cls-70{fill:url(#radial-gradient-9)}.cls-71{fill:#4ea2de}.cls-72{fill:#8cd4f4}.cls-73{clip-path:url(#clip-path-13)}.cls-74{fill:url(#radial-gradient-10)}.cls-75{fill:#d54f7c}.cls-76{fill:#4398be}.cls-77{fill:#a1e0ea}.cls-78{fill:#3367b1}.cls-79{fill:#2a5698}.cls-80{fill:#3f79c6}.cls-81{fill:#3773b9}.cls-82{fill:#1d365c}.cls-83{fill:#192b45}.cls-84{clip-path:url(#clip-path-14)}.cls-85{fill:url(#radial-gradient-11)}.cls-86{fill:#a8a8a6}.cls-87{fill:#fefefe}.cls-88{fill:#484849}.cls-89{fill:#f8a3c2}.cls-90{fill:#8ecce5}.cls-91{clip-path:url(#clip-path-15)}.cls-92{fill:url(#radial-gradient-12)}.cls-93{fill:#cfdfe4}.cls-94{fill:#b5d2d8}.cls-95{fill:#162337}.cls-96{clip-path:url(#clip-path-16)}.cls-97{fill:url(#linear-gradient-4)}.cls-98{clip-path:url(#clip-path-17)}.cls-99{fill:url(#linear-gradient-5)}.cls-100{clip-path:url(#clip-path-18)}.cls-101{fill:url(#linear-gradient-6)}.cls-102{fill:#f793b9}.cls-103{fill:#f9b0d2}.cls-104{clip-path:url(#clip-path-19)}.cls-105{fill:url(#linear-gradient-7)}.cls-106{clip-path:url(#clip-path-20)}.cls-107{fill:url(#linear-gradient-8)}.cls-108{clip-path:url(#clip-path-21)}.cls-109{fill:url(#linear-gradient-9)}.cls-110{fill:#f46aa1}
        </style>
        <clipPath id="clip-path">
            <path id="path34" d="M179.038-215.062l-22.016-12.71-18.612 10.744-67.124-38.825 68.26-40.792v52.878a2.393 2.393 0 0 0 1 2.206l.286.129 5.892 3.387a1.72 1.72 0 0 0 1.02.312 3.1 3.1 0 0 0 1.521-.464l66.891-38.619v9.93l-40.176 23.195c-1.6.923-2.322 2.158-2.175 3.365v6.969a2.371 2.371 0 0 0-.012.25 3.713 3.713 0 0 0 2.186 3.053l11.922 6.886a9.911 9.911 0 0 0 3.642 1.159l-12.506 6.946" transform="translate(-71.286 296.645)"/>
        </clipPath>
        <radialGradient id="radial-gradient" cx="14.918" cy="1536.017" r="491.884" gradientTransform="matrix(.563 0 0 .563 -24.458 800.596)" gradientUnits="userSpaceOnUse">
            <stop offset="0" stop-color="#daeff4"/>
            <stop offset="1" stop-color="#bdd0d5"/>
        </radialGradient>
        <clipPath id="clip-path-2">
            <path id="path110" d="M332.287-139.195l-22.836-.01L269-162.556l11.03-7.345v-.1l51.253 29.59 41.248-23.815 1.907.66-42.156 24.374m-81.9-34.113l-42.53-24.555 41.4-16.6 1.045.6-6.185 3.571v19.538l17.518 10.114-11.244 7.325m163.964-13.335l-1.051-1.12 34.941-20.174-.718-.414 2.5 1.084-35.668 20.625" transform="translate(-207.852 214.458)"/>
        </clipPath>
        <radialGradient id="radial-gradient-2" cx="-1441.66" cy="1792.339" r="891.272" gradientTransform="matrix(.311 0 0 .311 -1135.547 1383.09)" xlink:href="#radial-gradient"/>
        <clipPath id="clip-path-3">
            <path id="path126" d="M206.685-200l-5.736-3.312 12.506-6.946a12.828 12.828 0 0 0 1.655.106 10.852 10.852 0 0 0 5.3-1.265l27.16-15.683v10.207l.512.3-41.4 16.6" transform="translate(-200.949 227.097)"/>
        </clipPath>
        <radialGradient id="radial-gradient-3" cx="-672.867" cy="1107.787" r="481.794" gradientTransform="matrix(.575 0 0 .575 -370.101 567.4)" gradientUnits="userSpaceOnUse">
            <stop offset="0" stop-color="#b9dee9"/>
            <stop offset="1" stop-color="#9fbfca"/>
        </radialGradient>
        <clipPath id="clip-path-4">
            <path id="path176" d="M323.419-297.239l1.577-.91-1.577.91" transform="translate(-323.419 298.149)"/>
        </clipPath>
        <radialGradient id="radial-gradient-4" cx="-852.743" cy="1489.774" r="480.126" gradientTransform="matrix(.577 0 0 .577 -456.189 756.423)" gradientUnits="userSpaceOnUse">
            <stop offset="0" stop-color="#f279aa"/>
            <stop offset="1" stop-color="#d16a92"/>
        </radialGradient>
        <clipPath id="clip-path-5">
            <path id="path198" d="M398.306-330.707l-8.3-4.791 8.3 4.791" transform="translate(-390.007 335.498)"/>
        </clipPath>
        <radialGradient id="radial-gradient-5" cx="-1565.031" cy="1692.172" r="479.83" gradientTransform="matrix(.577 0 0 .577 -813.029 857.101)" xlink:href="#radial-gradient-4"/>
        <clipPath id="clip-path-6">
            <path id="path222" d="M507.44-436.76l-36.886-21.3c2.923-4.4 1.632-13.936 8.013-22.178.2-.275.41-.523.617-.774.1-.119.182-.242.286-.36l.064-.07c.165-.178.336-.336.5-.5a223.903 223.903 0 0 0-1.148-4.679 42.1 42.1 0 0 1-.9-4.451h-.011.011c-.037-.249-.065-.488-.1-.727a6.596 6.596 0 0 1-.586.027 5.191 5.191 0 0 1-1.927-.351c1.563-.674 1.33-1.705 1.33-1.705s-3.085-6.116.863-9.728a1.552 1.552 0 0 1 1.09-.382c5.6 0 22.5 19.919 21.631 20.105a10.8 10.8 0 0 1 .067 2.019c3.939 2.477.64 30.187 3.381 34.184a41.992 41.992 0 0 1 3.7 10.875" transform="translate(-470.554 503.943)"/>
        </clipPath>
        <radialGradient id="radial-gradient-6" cx="5690.757" cy="-5732.339" r="152.087" gradientTransform="translate(-4282.874 4294.403) scale(1.821)" gradientUnits="userSpaceOnUse">
            <stop offset="0" stop-color="#e4e4e3"/>
            <stop offset="1" stop-color="#c7c6c4"/>
        </radialGradient>
        <clipPath id="clip-path-7">
            <path id="path270" d="M473.433-519.217s-3.386 5.423-.35 17.19c2.464 9.533 2.831 14.809 6.81 15.212s15.9-2.506 14.595-12.431c1.187-.255 3.612-4.8 1.7-8.407s-3.257.335-3.257.335.078-7.868-5.484-10.736-14.013-1.164-14.013-1.164z" transform="translate(-471.819 519.72)"/>
        </clipPath>
        <linearGradient id="linear-gradient" x1="-15.635" x2="-15.63" y1="13.111" y2="13.111" gradientUnits="objectBoundingBox">
            <stop offset="0" stop-color="#fddebb"/>
            <stop offset="1" stop-color="#f9ad59"/>
        </linearGradient>
        <clipPath id="clip-path-8">
            <path id="path292" d="M478.7-440.631s-.8 1.23-2.493 0-2.331-3.32-3.378-4.1c-.127 2.679-.007 4.553-3.326 4.491s-5.465-.518-7.354-.387.363 8.473 10.074 8.663c5.352-.331 7.629-3.325 7.629-3.325z" transform="translate(-461.534 444.728)"/>
        </clipPath>
        <linearGradient id="linear-gradient-2" x1="-20.942" x2="-20.936" y1="28.949" y2="28.949" gradientUnits="objectBoundingBox">
            <stop offset="0" stop-color="#f9ad59"/>
            <stop offset="1" stop-color="#fddebb"/>
        </linearGradient>
        <clipPath id="clip-path-9">
            <path id="path308" d="M435-452.556s1.785 3.653 2.891 4.072.249 6.505-3.142 4.553-1.797-8.432.251-8.625z" transform="translate(-432.776 452.556)"/>
        </clipPath>
        <linearGradient id="linear-gradient-3" x1="-64.595" x2="-64.575" y1="41.741" y2="41.741" xlink:href="#linear-gradient-2"/>
        <clipPath id="clip-path-10">
            <path id="path564" d="M463.322-138.854l-55-19.059 39.9-23.073 9.339 9.959-6.546 3.793 6.159 3.559 4.718-2.735-4.718 2.735v7.1l9.038-5.236 11.317 12.066-14.2 10.889" transform="translate(-408.318 180.986)"/>
        </clipPath>
        <radialGradient id="radial-gradient-7" cx="-1625.322" cy="773.204" r="455.007" gradientTransform="matrix(.609 0 0 .609 -794.104 373.285)" xlink:href="#radial-gradient"/>
        <clipPath id="clip-path-11">
            <path id="path580" d="M407.93-158.141l-1.907-.661 40.759-23.532 1.052 1.12-39.9 23.073" transform="translate(-406.023 182.334)"/>
        </clipPath>
        <radialGradient id="radial-gradient-8" cx="-1760.648" cy="853.128" r="478.705" gradientTransform="matrix(.579 0 0 .579 -909.987 436.287)" xlink:href="#radial-gradient-3"/>
        <clipPath id="clip-path-12">
            <path id="path666" d="M160.558-81.827l37.757-46.9 18.785 10.842s-12.462 6.8-28.127 21.284-28.412 14.773-28.412 14.773" transform="translate(-160.558 128.728)"/>
        </clipPath>
        <radialGradient id="radial-gradient-9" cx="79.445" cy="131.803" r="333.933" gradientTransform="matrix(.83 0 0 .83 -13.729 44.414)" xlink:href="#radial-gradient"/>
        <clipPath id="clip-path-13">
            <path id="path686" d="M277.653-155.678l-18.623-10.751 11.244-7.325 18.409 10.628v.1l-11.03 7.345" transform="translate(-259.03 173.754)"/>
        </clipPath>
        <radialGradient id="radial-gradient-10" cx="-863.263" cy="734.971" r="454.424" gradientTransform="matrix(.61 0 0 .61 -436.035 354.792)" xlink:href="#radial-gradient-3"/>
        <clipPath id="clip-path-14">
            <path id="path818" d="M512.677-173.83a22.9 22.9 0 0 1-10.631-2.386l-.526-.284c-5.87-3.181-5.87-8.338 0-11.518l41.16-22.3 4.283 2.319 6.14-3.326v18.967l-29.792 16.138a22.9 22.9 0 0 1-10.632 2.386" transform="translate(-497.117 211.321)"/>
        </clipPath>
        <radialGradient id="radial-gradient-11" cx="-1670.281" cy="754.808" r="413.645" gradientTransform="matrix(.67 0 0 .67 -714.525 319.142)" gradientUnits="userSpaceOnUse">
            <stop offset="0" stop-color="#c8e2eb"/>
            <stop offset="1" stop-color="#acc4cc"/>
        </radialGradient>
        <clipPath id="clip-path-15">
            <path id="path856" d="M168.05-408.475l-.01-.006.63-.353-.62.359" transform="translate(-168.04 408.834)"/>
        </clipPath>
        <radialGradient id="radial-gradient-12" cx="115.201" cy="2135.115" r="486.415" gradientTransform="matrix(.569 0 0 .569 -64.907 1095.251)" xlink:href="#radial-gradient-6"/>
        <clipPath id="clip-path-16">
            <path id="path890" d="M189.706-503.23s-.114-1.122-3.151 5.615 4.256 28.262 5.987 30.624 23.428 9.009 28.2 1.643c-2.977-1.53-.1-3.73-.687-7.173-8.862 3.1-21.633-2.239-24.342-4.486-4.516-3.744 2.175-16.9-6-26.223z" transform="translate(-185.824 503.3)"/>
        </clipPath>
        <linearGradient id="linear-gradient-4" x1="-4.423" x2="-4.42" y1="10.121" y2="10.121" xlink:href="#linear-gradient-2"/>
        <clipPath id="clip-path-17">
            <path id="path910" d="M164.17-447.692s.243 14.89 13.4 18.127 30.356 8.276 30.356 8.276l6.578 37.68s2.237 2.228 3.994 1.5a2.14 2.14 0 0 0 1.269-2.266s.912-27.879-1.522-39.561c-1.8-8.638-32.341-21.657-32.341-21.657z" transform="translate(-164.17 447.692)"/>
        </clipPath>
        <linearGradient id="linear-gradient-5" x1="-2.447" x2="-2.445" y1="5.66" y2="5.66" xlink:href="#linear-gradient"/>
        <clipPath id="clip-path-18">
            <path id="path932" d="M148.491-437.11s-1.27 14.839 11.487 19.395 28.53 10.341 28.53 10.341L191.6-370a4.366 4.366 0 0 0 3.648 1.709c2.625 0 2.536-1.342 2.536-1.342s2.783-27.028 1.147-38.847-18.538-25.72-18.538-25.72z" transform="translate(-148.456 437.11)"/>
        </clipPath>
        <linearGradient id="linear-gradient-6" x1="-2.419" x2="-2.417" y1="5.278" y2="5.278" xlink:href="#linear-gradient"/>
        <clipPath id="clip-path-19">
            <path id="path954" d="M186-530.322s3.386 5.423.351 17.19c-2.466 9.535-2.831 14.809-6.81 15.212s-15.9-2.506-14.6-12.431c-1.186-.255-3.611-4.8-1.7-8.407s3.256.336 3.256.336-.076-7.868 5.485-10.737S186-530.322 186-530.322z" transform="translate(-162.537 530.825)"/>
        </clipPath>
        <linearGradient id="linear-gradient-7" x1="-5.386" x2="-5.382" y1="13.392" y2="13.392" xlink:href="#linear-gradient"/>
        <clipPath id="clip-path-20">
            <path id="path976" d="M228.4-463.662s-1.786 3.653-2.892 4.073-.249 6.5 3.143 4.552 1.799-8.431-.251-8.625z" transform="translate(-225.057 463.662)"/>
        </clipPath>
        <linearGradient id="linear-gradient-8" x1="-33.585" x2="-33.565" y1="42.765" y2="42.765" xlink:href="#linear-gradient-2"/>
        <clipPath id="clip-path-21">
            <path id="path992" d="M192.219-457.939c-1.888-.132-4.034.327-7.354.388s-3.2-1.813-3.325-4.491c-1.048.778-1.685 2.868-3.379 4.1s-2.493 0-2.493 0l-.358.268c-12.019-2.122-20.508-5.1-22.414-7.961-1.951-2.928 3.406-11.776 3.868-19.766 0 0 1.069-10.019-5.362-6.377s-8.582 29.318-8.582 32.247 21.558 6.992 32.831 8.022a15.513 15.513 0 0 0 6.494 2.236c9.712-.188 11.963-8.532 10.074-8.663z" transform="translate(-142.82 492.578)"/>
        </clipPath>
        <linearGradient id="linear-gradient-9" x1="-2.373" x2="-2.371" y1="9.453" y2="9.453" xlink:href="#linear-gradient-2"/>
    </defs>
    <g id="_2085404" data-name="2085404" transform="translate(-71.286 594.649)">
        <g id="g12" transform="translate(71.286 -594.649)">
            <g id="g30" transform="translate(0 247.647)">
                <g id="g32" class="cls-1">
                    <path id="path44" d="M179.038-215.062l-22.016-12.71-18.612 10.744-67.124-38.825 68.26-40.792v52.878a2.393 2.393 0 0 0 1 2.206l.286.129 5.892 3.387a1.72 1.72 0 0 0 1.02.312 3.1 3.1 0 0 0 1.521-.464l66.891-38.619v9.93l-40.176 23.195c-1.6.923-2.322 2.158-2.175 3.365v6.969a2.371 2.371 0 0 0-.012.25 3.713 3.713 0 0 0 2.186 3.053l11.922 6.886a9.911 9.911 0 0 0 3.642 1.159l-12.506 6.946" class="cls-2" transform="translate(-71.286 296.645)"/>
                </g>
            </g>
            <path id="path46" d="M314.791-279.2v-7.122l-5.117 2.575-8.984-5.191a11.722 11.722 0 0 0-10.6 0l-90.3 52.139-5.142-2.509v7.037c-.115 1.188.6 2.4 2.174 3.3l11.922 6.886a11.724 11.724 0 0 0 10.6 0l93.27-53.853c1.553-.9 2.275-2.09 2.177-3.265" class="cls-3" transform="translate(-92.13 543.203)"/>
            <path id="path48" d="M199.792-227.593l-5.142-2.509v7.037c-.115 1.188.6 2.4 2.174 3.3l11.922 6.886a10.811 10.811 0 0 0 5.151 1.257v-24.118l-14.106 8.144" class="cls-4" transform="translate(-92.13 533.999)"/>
            <path id="path50" d="M208.745-231.131a11.71 11.71 0 0 0 10.6 0l93.27-53.851c2.926-1.693 2.926-4.43 0-6.117l-11.919-6.884a11.714 11.714 0 0 0-10.6 0l-93.271 53.85c-2.925 1.69-2.925 4.429 0 6.118l11.922 6.882" class="cls-5" transform="translate(-92.129 544.731)"/>
            <path id="path52" d="M244.289-252.081l-6.5-3.68v-33.265l41.945-24.215-35.443 61.159" class="cls-4" transform="translate(-99.422 547.096)"/>
            <path id="path54" d="M287.555-275.549l-41.944 24.216V-284.6l41.944-24.215v33.264" class="cls-6" transform="translate(-100.744 546.348)"/>
            <path id="path56" d="M341.065-521l-6.1-3.481a1.567 1.567 0 0 0-.415-.237 2.564 2.564 0 0 0-2.177.349L156.832-423.027a7.533 7.533 0 0 0-3.406 5.9v134.8a2.393 2.393 0 0 0 1 2.206l.286.129 6.07 3.489 1.262-6.568-1.812.753L332.365-381.7a7.533 7.533 0 0 0 3.412-5.9v-129.725l5.288-3.675" class="cls-6" transform="translate(-85.166 582.852)"/>
            <path id="path58" d="M335.218-524.482a1.568 1.568 0 0 0-.415-.237 2.565 2.565 0 0 0-2.177.349L157.089-423.027a6.732 6.732 0 0 0-2.145 2.141l117.342 74.02 60.335-34.834a7.533 7.533 0 0 0 3.412-5.9v-129.725l5.289-3.675-6.1-3.481" class="cls-5" transform="translate(-85.423 582.852)"/>
            <path id="path60" d="M343.368-383.272a7.536 7.536 0 0 1-3.406 5.9L164.426-276.025c-1.883 1.084-3.406.206-3.406-1.967v-134.8a7.531 7.531 0 0 1 3.406-5.9l175.535-101.344c1.88-1.088 3.406-.206 3.406 1.966v134.8" class="cls-3" transform="translate(-86.449 582.12)"/>
            <path id="path62" d="M340.729-391.922L165-290.465v-121.34l175.73-101.456v121.339" class="cls-7" transform="translate(-87.122 580.896)"/>
            <path id="path64" d="M339.009-512.269v119.009L165-292.8v2.332l175.73-101.457v-121.336l-1.721.993" class="cls-8" transform="translate(-87.122 580.896)"/>
            <path id="path66" d="M342.432-478.2l-70.049 40.443v-4.014l70.049-40.443v4.014" class="cls-9" transform="translate(-105.268 575.65)"/>
            <path id="path68" d="M334.432-469.575l-109.391 63.157v-4.013l109.391-63.157v4.013" class="cls-9" transform="translate(-97.268 574.192)"/>
            <path id="path70" d="M334.432-460.948l-109.391 63.157v-4.009l109.391-63.157v4.013" class="cls-9" transform="translate(-97.268 572.734)"/>
            <path id="path72" d="M334.432-452.322l-109.391 63.157v-4.012l109.391-63.158v4.013" class="cls-9" transform="translate(-97.268 571.277)"/>
            <path id="path74" d="M334.432-443.694l-109.391 63.156v-4.012l109.391-63.157v4.013" class="cls-9" transform="translate(-97.268 569.818)"/>
            <path id="path76" d="M334.432-435.067L225.041-371.91v-4.013l109.391-63.157v4.013" class="cls-9" transform="translate(-97.268 568.361)"/>
            <path id="path78" d="M342.432-417.814l-70.049 40.443v-4.013l70.049-40.443v4.013" class="cls-9" transform="translate(-105.268 565.445)"/>
            <path id="path80" d="M334.432-409.186L225.041-346.03v-4.012L334.432-413.2v4.014" class="cls-9" transform="translate(-97.268 563.987)"/>
            <path id="path82" d="M334.432-400.56L225.041-337.4v-4.012l109.391-63.158v4.013" class="cls-9" transform="translate(-97.268 562.53)"/>
            <path id="path84" d="M334.432-391.932l-109.391 63.157v-4.014l109.391-63.156v4.013" class="cls-9" transform="translate(-97.268 561.072)"/>
            <path id="path86" d="M334.432-383.306l-109.391 63.158v-4.014l109.391-63.158v4.014" class="cls-9" transform="translate(-97.268 559.614)"/>
            <path id="path88" d="M277.5-335.122l-52.457 30.287v-4.017l52.457-30.286v4.015" class="cls-9" transform="translate(-97.268 551.472)"/>
            <path id="path90" d="M537.832-269.125l-94.121-54.34-18.193-128.225 18.194-10.4 94.121 54.341v138.621" class="cls-10" transform="translate(-131.145 572.248)"/>
            <path id="path92" d="M533.229-270.488l-15.789 8.065-91.43-183.521 17.369-9.926 89.85 51.876v133.505" class="cls-8" transform="translate(-131.228 571.198)"/>
            <path id="path94" d="M519.638-256.613l-94.121-54.341v-138.622l94.121 54.341v138.622" class="cls-11" transform="translate(-131.145 570.134)"/>
            <path id="path96" d="M512.31-254.363L418.187-308.7l-18.193-128.227 18.194-10.4 94.123 54.341v138.621" class="cls-12" transform="translate(-126.832 569.754)"/>
            <path id="path98" d="M507.709-255.725l-15.789 8.066-91.432-183.522 17.369-9.926 89.852 51.876v133.505" class="cls-8" transform="translate(-126.915 568.703)"/>
            <path id="path100" d="M494.114-241.851l-94.121-54.341v-138.62l94.121 54.341v138.621" class="cls-3" transform="translate(-126.832 567.64)"/>
            <path id="path102" d="M434.825-327.38l-34.832-20.109v-87.323L442.46-410.3c-3.923 3.737-7.181 7.826-8.126 11.687-2.829 11.592-1.812 38.454-1.812 38.454l.117.2c-1.4 1.077-6.414 4.983-7.629 6.742a1.99 1.99 0 0 0-.257.536 1.486 1.486 0 0 0 .747 1.776l.268.134.141.065.257.084.227.063.26.047c.1.017.193.031.294.04l.27.017h.351l.288-.011c.13-.009.264-.023.4-.041.1-.012.2-.024.3-.043.147-.023.3-.057.451-.091.1-.023.205-.045.314-.072.162-.042.334-.1.5-.151l.318-.1c.191-.066.388-.148.586-.228l.288-.117c.3-.131.608-.278.924-.445 5.272-2.782 6.4-3.515 7.42-4.1a1.7 1.7 0 0 0 .413-.328l.074-.082a1.26 1.26 0 0 0 .218-.39v-.023a1.8 1.8 0 0 0 .071-.464v-.1a5.71 5.71 0 0 0-.041-.668c.138-.058.232-.1.232-.1l4.439-39.32s6 9.863 11.04 9.863a3.52 3.52 0 0 0 1.336-.257c-1.108 1.371-1.765 1.711-2.171 1.711a.678.678 0 0 1-.441-.165c-.1-.083-.166-.166-.216-.166-.108 0-.154.368-.362 1.875-1.637 11.819-1.666 37.535-1.666 37.535s.07.075.175.177c-1.715 1.327-6.189 4.861-7.325 6.507a1.911 1.911 0 0 0-.259.537 1.478 1.478 0 0 0 .745 1.774l.268.134.143.068.247.08-11.467 10.267m25.549-22.876c1.348-11.993 4.849-46.618 4.849-46.618l.271-.122L494.1-380.48l-33.741 30.215" class="cls-13" transform="translate(-126.832 567.64)"/>
            <path id="path104" d="M427.27-432.064l-8.005-4.523v-17.033l4 5.684 4-2.634v18.506" class="cls-14" transform="translate(-130.088 570.818)"/>
            <g id="g106" transform="translate(113.488 315.945)">
                <g id="g108" class="cls-15">
                    <path id="path120" d="M332.287-139.195l-22.836-.01L269-162.556l11.03-7.345v-.1l51.253 29.59 41.248-23.815 1.907.66-42.156 24.374m-81.9-34.113l-42.53-24.555 41.4-16.6 1.045.6-6.185 3.571v19.538l17.518 10.114-11.244 7.325m163.964-13.335l-1.051-1.12 34.941-20.174-.718-.414 2.5 1.084-35.668 20.625" class="cls-16" transform="translate(-207.852 214.458)"/>
                </g>
            </g>
            <g id="g122" transform="translate(107.752 305.442)">
                <g id="g124" class="cls-17">
                    <path id="path136" d="M206.685-200l-5.736-3.312 12.506-6.946a12.828 12.828 0 0 0 1.655.106 10.852 10.852 0 0 0 5.3-1.265l27.16-15.683v10.207l.512.3-41.4 16.6" class="cls-18" transform="translate(-200.949 227.097)"/>
                </g>
            </g>
            <path id="path138" d="M217.654-210.578a12.831 12.831 0 0 1-1.655-.106l.01-.006a12.969 12.969 0 0 0 1.5.1v-.936l32.606-18.109v2.107l-27.16 15.682a10.852 10.852 0 0 1-5.3 1.265" class="cls-19" transform="translate(-95.74 532.968)"/>
            <path id="path140" d="M217.509-206.9a12.972 12.972 0 0 1-1.5-.1l1.5-.833v.936" class="cls-20" transform="translate(-95.742 529.285)"/>
            <path id="path142" d="M338.66-149.323l-87.179-50.332v-19.538l116.953-47.984 87.175 50.332-116.949 67.522" class="cls-10" transform="translate(-101.736 539.312)"/>
            <path id="path144" d="M369.315-274.734L256.7-222.481v17.772l82.843 47.83L456.49-224.4l-87.174-50.332" class="cls-21" transform="translate(-102.617 540.589)"/>
            <path id="path146" d="M369.315-280.2l-18.672 8.665v55.952H256.7v5.408l82.843 47.83 116.947-67.524-87.175-50.331" class="cls-22" transform="translate(-102.617 541.512)"/>
            <path id="path148" d="M369.315-285.209l-18.672 8.664v60.116H256.7v1.245l82.843 47.83 116.947-67.523-87.174-50.332" class="cls-8" transform="translate(-102.617 542.359)"/>
            <path id="path150" d="M338.66-172.834l-87.179-50.332 116.953-67.522 87.175 50.33-116.949 67.524" class="cls-11" transform="translate(-101.736 543.285)"/>
            <path id="path152" d="M339.878-180.038l-82.828-47.821v-18.561l111.114-45.59 82.825 47.819-111.111 64.153" class="cls-12" transform="translate(-102.677 543.508)"/>
            <path id="path154" d="M369-299.19l-107 49.645v16.885l78.71 45.442 111.116-64.152L369-299.19" class="cls-21" transform="translate(-103.514 544.722)"/>
            <path id="path156" d="M369-304.382l-17.738 8.232v53.159H262v5.138l78.71 45.442 111.111-64.152L369-304.382" class="cls-22" transform="translate(-103.514 545.599)"/>
            <path id="path158" d="M369-309.142l-17.738 8.231v57.111H262v1.184l78.71 45.441 111.111-64.152L369-309.142" class="cls-8" transform="translate(-103.514 546.403)"/>
            <path id="path160" d="M339.878-202.376L257.05-250.2l111.114-64.152 82.825 47.818-111.111 64.158" class="cls-3" transform="translate(-102.677 547.283)"/>
            <path id="path162" d="M341.372-207.115L262.2-252.827v-17.742l106.21-43.576 79.171 45.708-106.209 61.322" class="cls-14" transform="translate(-103.547 547.249)"/>
            <path id="path164" d="M369.21-321.01l-102.273 47.454v16.141l75.236 43.438L448.382-275.3l-79.172-45.71" class="cls-21" transform="translate(-104.348 548.409)"/>
            <path id="path166" d="M369.21-325.973l-16.956 7.873v50.814h-85.317v4.911l75.236 43.438 106.209-61.322-79.172-45.714" class="cls-22" transform="translate(-104.348 549.247)"/>
            <path id="path168" d="M369.21-330.523l-16.956 7.869v54.594h-85.317v1.131l75.236 43.437 106.209-61.321-79.171-45.71" class="cls-8" transform="translate(-104.348 550.016)"/>
            <path id="path170" d="M341.372-228.468L262.2-274.177 368.41-335.5l79.171 45.708-106.209 61.324" class="cls-23" transform="translate(-103.547 550.857)"/>
            <g id="g172" transform="translate(209.527 246.397)">
                <g id="g174" class="cls-24">
                    <path id="path186" d="M323.419-297.239l1.577-.91-1.577.91" class="cls-25" transform="translate(-323.419 298.149)"/>
                </g>
            </g>
            <path id="path188" d="M296.085-283.939l22.715-13.115-22.716 13.115" class="cls-26" transform="translate(-109.273 544.361)"/>
            <path id="path190" d="M262.2-265.014l28.16-16.259-28.16 16.259" class="cls-27" transform="translate(-103.547 541.694)"/>
            <path id="path192" d="M325.063-231.572L262.2-267.865l28.16-16.259 22.715-13.115 1.577-.91-5.037 2.909 8.732-.776 59.166 34.162-52.449 30.281" class="cls-28" transform="translate(-103.547 544.546)"/>
            <g id="g194" transform="translate(264.863 215.359)">
                <g id="g196" class="cls-29">
                    <path id="path208" d="M398.306-330.707l-8.3-4.791 8.3 4.791" class="cls-30" transform="translate(-390.007 335.498)"/>
                </g>
            </g>
            <path id="path210" d="M441.907-305.534" class="cls-31" transform="translate(-133.915 545.794)"/>
            <path id="path212" d="M434.824-309.623l-34.831-20.109 34.832 20.109" class="cls-32" transform="translate(-126.832 549.883)"/>
            <path id="path214" d="M329.012-302.327l-3.7-2.133 53.764-31.04 8.3 4.791 34.829 20.109-93.193 8.27" class="cls-28" transform="translate(-114.213 550.857)"/>
            <path id="path216" d="M319.255-295.24l5.037-2.909 3.7 2.133-8.732.776" class="cls-33" transform="translate(-113.189 544.546)"/>
            <g id="g218" transform="translate(331.798 75.379)">
                <g id="g220" class="cls-34">
                    <path id="path232" d="M507.44-436.76l-36.886-21.3c2.923-4.4 1.632-13.936 8.013-22.178.2-.275.41-.523.617-.774.1-.119.182-.242.286-.36l.064-.07c.165-.178.336-.336.5-.5a223.903 223.903 0 0 0-1.148-4.679 42.1 42.1 0 0 1-.9-4.451h-.011.011c-.037-.249-.065-.488-.1-.727a6.596 6.596 0 0 1-.586.027 5.191 5.191 0 0 1-1.927-.351c1.563-.674 1.33-1.705 1.33-1.705s-3.085-6.116.863-9.728a1.552 1.552 0 0 1 1.09-.382c5.6 0 22.5 19.919 21.631 20.105a10.8 10.8 0 0 1 .067 2.019c3.939 2.477.64 30.187 3.381 34.184a41.992 41.992 0 0 1 3.7 10.875" class="cls-35" transform="translate(-470.554 503.943)"/>
                </g>
            </g>
            <path id="path234" d="M503.06-423.26l-41.04-23.694a43.757 43.757 0 0 0 2.667-2.059 5.492 5.492 0 0 0 1.06-1.2l36.886 21.3a25.417 25.417 0 0 1 .427 5.653m-60.827-30.677l-.12-3.57 1.468 2.8-1.348.77" class="cls-36" transform="translate(-133.949 571.475)"/>
            <path id="path236" d="M496.248-411.13l-53.733-31.022-.4-10.246.159.215-.04-1.184 1.348-.77 6.574 12.53 5.7-1.327a30.957 30.957 0 0 0 6.169-3.449l41.04 23.694c-.207 4.5-1.933 8.871-6.812 11.561" class="cls-37" transform="translate(-133.949 570.905)"/>
            <path id="path238" d="M492.71-407.037l-51.474-29.718a1.8 1.8 0 0 1 1.211-.889l-.081-2.071 53.734 31.022-.086.048c-.545.3-1.733.871-3.3 1.608" class="cls-38" transform="translate(-133.801 568.468)"/>
            <path id="path240" d="M487.305-404.03l-37.38-21.582-.286-2.107c-.1-.032-2.044-.183-3.949-.338l-5.56-3.21a7.063 7.063 0 0 1 .9-4.886l51.474 29.718a601 601 0 0 1-5.2 2.405" class="cls-39" transform="translate(-133.596 567.866)"/>
            <path id="path242" d="M472.279-396.23l-23.034-13.3c.391-.373.79-.742 1.192-1.108l.331-7.909-.822-6.073 37.38 21.582a2355.188 2355.188 0 0 1-15.048 6.807m-26.567-30.834c-1.817-.148-3.6-.3-3.7-.36a3.993 3.993 0 0 1-1.861-2.85l5.56 3.21" class="cls-37" transform="translate(-133.618 566.873)"/>
            <path id="path244" d="M457.021-320.28c-.085 0-.17 0-.254-.006l-.27-.014c-.1-.011-.2-.024-.3-.041l-.26-.048-.227-.063h-.008l14.082-12.609c-.28 2.483-.466 4-.512 4.031a.683.683 0 0 1 .271.418 12.331 12.331 0 0 1 .151 1.542v.1a1.949 1.949 0 0 1-.071.465l-.007.022a1.279 1.279 0 0 1-.216.391l-.074.082a1.745 1.745 0 0 1-.415.327c-1.026.587-2.146 1.319-7.418 4.1a16.15 16.15 0 0 1-.926.448l-.288.114c-.2.083-.393.163-.586.229-.109.04-.213.07-.318.1-.172.054-.34.109-.5.152-.111.028-.213.048-.316.073-.152.033-.3.065-.451.089-.1.02-.2.031-.3.043-.138.02-.273.033-.4.042l-.286.012h-.1" class="cls-40" transform="translate(-136.246 550.446)"/>
            <path id="path246" d="M451.311-332.662l-.247-.08-.143-.068-.268-.134a1.478 1.478 0 0 1-.745-1.774 1.911 1.911 0 0 1 .259-.537c1.136-1.647 5.61-5.18 7.325-6.507-.105-.1-.175-.177-.175-.177s.03-25.716 1.666-37.535c.208-1.507.255-1.875.362-1.875.05 0 .114.083.216.166a.678.678 0 0 0 .441.165c.406 0 1.063-.34 2.171-1.711a3.52 3.52 0 0 1-1.336.257c-5.036 0-11.04-9.863-11.04-9.863l-4.439 39.32s-.093.044-.232.1a5.685 5.685 0 0 1 .041.668v.1a1.8 1.8 0 0 1-.071.464v.023a1.258 1.258 0 0 1-.218.39l-.074.082a1.7 1.7 0 0 1-.413.328c-1.025.586-2.148 1.319-7.42 4.1-.316.167-.623.315-.924.445l-.288.117c-.2.08-.4.162-.586.228a7.153 7.153 0 0 1-.318.1c-.171.054-.342.109-.5.151-.109.027-.211.049-.314.072-.154.034-.3.068-.451.091-.1.019-.2.031-.3.043-.136.018-.27.032-.4.041l-.288.011h-.351l-.27-.017a3.36 3.36 0 0 1-.294-.04l-.26-.047-.227-.063-.257-.084-.141-.065-.268-.134a1.486 1.486 0 0 1-.747-1.776 1.988 1.988 0 0 1 .257-.536c1.214-1.76 6.226-5.665 7.629-6.742-.069-.114-.118-.2-.118-.2s-1.017-26.862 1.812-38.454c.945-3.861 4.2-7.95 8.126-11.687l23.033 13.3-.271.122s-3.5 34.624-4.849 46.618l-14.082 12.609" class="cls-41" transform="translate(-131.851 562.654)"/>
            <path id="path248" d="M467.727-492.125s.115-1.124 3.151 5.614-4.255 28.262-5.985 30.626-23.429 9.008-28.2 1.642c2.978-1.529.1-3.73.687-7.172 8.862 3.1 17.661-3.956 20.37-6.2 4.517-3.743 1.8-15.184 9.977-24.507" class="cls-42" transform="translate(-133.034 577.336)"/>
            <path id="path250" d="M430.788-360.413s-6.589 4.979-8 7.03 1.66 4.247 6.931 1.464 6.4-3.515 7.421-4.1.829-1.416.634-2.93-6.982-1.465-6.982-1.465" class="cls-8" transform="translate(-130.625 555.067)"/>
            <path id="path252" d="M437.138-356.468c-1.026.585-2.15 1.317-7.422 4.1-3.962 2.091-6.68 1.371-7.189.014-.593 1.859 2.377 3.468 7.189.928 5.272-2.782 6.4-3.515 7.422-4.1.783-.449.852-1.04.752-1.97a1.368 1.368 0 0 1-.752 1.027" class="cls-43" transform="translate(-130.627 554.574)"/>
            <path id="path254" d="M488.756-436.65s-.242 14.89-13.395 18.127-27.056 9.938-27.056 9.938l-8.633 37.474a6.8 6.8 0 0 1-3.712.594 5.658 5.658 0 0 1-4.105-2.744s-1.017-26.862 1.812-38.454 26.509-25.244 26.509-25.244l28.579.308" class="cls-44" transform="translate(-132.186 568.002)"/>
            <path id="path256" d="M455.02-344.807s-6.589 4.979-8.005 7.029 1.659 4.247 6.932 1.465 6.393-3.515 7.419-4.1.831-1.416.634-2.929-6.979-1.465-6.979-1.465" class="cls-8" transform="translate(-134.719 552.43)"/>
            <path id="path258" d="M461.367-340.863c-1.026.585-2.147 1.317-7.419 4.1-3.962 2.09-6.683 1.369-7.191.014-.593 1.858 2.379 3.469 7.191.929 5.272-2.782 6.393-3.515 7.419-4.1.783-.449.852-1.039.755-1.969a1.366 1.366 0 0 1-.755 1.027" class="cls-43" transform="translate(-134.721 551.937)"/>
            <path id="path260" d="M505.468-426s1.271 14.837-11.487 19.395-25.9 12.634-25.9 12.634l-4.787 36.148a5.326 5.326 0 0 1-3.833 1.416 5.742 5.742 0 0 1-4.137-1.773s-2.961-27.361-1.325-39.181 19.572-25.728 19.572-25.728l31.9-2.911" class="cls-45" transform="translate(-135.874 566.151)"/>
            <path id="path262" d="M463.733-445.821s-1.42-44.484 12.151-49.68 26 7.169 31.306 19.146 3.907 32.824 0 40.567c-18.615 12.812-43.987-3.881-43.457-10.032" class="cls-7" transform="translate(-137.596 578.101)"/>
            <path id="path264" d="M509.408-476.356C504.1-488.333 491.671-500.7 478.1-495.5a7.944 7.944 0 0 0-1.285.64c9.992 1.269 18.488 10.864 22.635 20.222 5.3 11.977 3.9 32.825 0 40.567a26.344 26.344 0 0 1-5.747 2.983 27.051 27.051 0 0 0 15.7-4.7c3.907-7.743 5.3-28.59 0-40.567" class="cls-8" transform="translate(-139.814 578.101)"/>
            <g id="g266" transform="translate(332.85 62.268)">
                <g id="g268" class="cls-46">
                    <path id="path280" d="M473.433-519.217s-3.386 5.423-.35 17.19c2.464 9.533 2.831 14.809 6.81 15.212s15.9-2.506 14.595-12.431c1.187-.255 3.612-4.8 1.7-8.407s-3.257.335-3.257.335.078-7.868-5.484-10.736-14.013-1.164-14.013-1.164" class="cls-47" transform="translate(-471.819 519.72)"/>
                </g>
            </g>
            <path id="path282" d="M485.5-510.768c-.021-.455-4.246 5.573-11.035 3.625a4.177 4.177 0 0 0 2.874-2.351 6 6 0 0 1-6.176 2.008 8.975 8.975 0 0 0 2.469-1.429 6.728 6.728 0 0 1-5.066.376c1.562-.675 1.328-1.705 1.328-1.705s-1.383 1.383-4.069-.961c1.094-.14.985-5.156 4.932-8.768s7.152-4.453 12.442-3.562a4.882 4.882 0 0 0-4.534-1.79c2.112-1.179 6.577.935 7.9 2.887 4.105-1.576 11.843 1.157 9.289 16.117-.041-.376-.394-2.809-1.844-3.27s-2.673 2.392-2.341 3.114a32.309 32.309 0 0 1 .486 4.989l-1.874.983s.582-3.711-.756-4.828-3.767.266-4.023-5.435" class="cls-44" transform="translate(-137.956 582.992)"/>
            <path id="path284" d="M434.868-467.378l8.042 10.789 25.976-6.054-1.486 33.575-23.627-.287-7.781-9.468-1.119-28.555" class="cls-8" transform="translate(-132.725 573.142)"/>
            <path id="path286" d="M434.868-472.84l8.042 15.328.858 27.234-7.781-9.468-1.119-33.094" class="cls-7" transform="translate(-132.725 574.066)"/>
            <g id="g288" transform="translate(324.303 124.587)">
                <g id="g290" class="cls-48">
                    <path id="path302" d="M478.7-440.631s-.8 1.23-2.493 0-2.331-3.32-3.378-4.1c-.127 2.679-.007 4.553-3.326 4.491s-5.465-.518-7.354-.387.363 8.473 10.074 8.663c5.352-.331 7.629-3.325 7.629-3.325l-1.151-5.344" class="cls-49" transform="translate(-461.534 444.728)"/>
                </g>
            </g>
            <g id="g304" transform="translate(300.405 118.082)">
                <g id="g306" class="cls-50">
                    <path id="path318" d="M435-452.556s1.785 3.653 2.891 4.072.249 6.505-3.142 4.553-1.794-8.432.252-8.625" class="cls-51" transform="translate(-432.776 452.556)"/>
                </g>
            </g>
            <path id="path320" d="M499.34-475.185s.573-9.146 7-5.5 13.266 25.316 13.266 28.245S489.8-435 481.6-438.123a11.518 11.518 0 0 0-.065-10.024c8.982-2.733 20.5-6.248 22.453-9.177s-5.74-5.508-4.648-17.861" class="cls-42" transform="translate(-140.611 575.537)"/>
            <path id="path322" d="M256.2-100.773l-134.343-77.561v-5.066l178.053 52.325v5.066l-43.71 25.236" class="cls-3" transform="translate(-79.832 525.156)"/>
            <path id="path324" d="M256.2-100.773l-134.343-77.561v-5.066L256.2-106.345v5.068l-.007.5" class="cls-6" transform="translate(-79.832 525.156)"/>
            <path id="path326" d="M256.2-110.971l-134.343-77.564 43.71-25.233 134.343 77.562-43.71 25.235" class="cls-5" transform="translate(-79.832 530.287)"/>
            <path id="path328" d="M177.35-197.945l-8.857-5.113v-1.083l14.568 1.816v1.084l-5.711 3.3" class="cls-52" transform="translate(-87.712 528.66)"/>
            <path id="path330" d="M177.35-199.7l-8.857-5.112 5.713-3.3 8.855 5.112-5.711 3.3" class="cls-53" transform="translate(-87.712 529.33)"/>
            <path id="path332" d="M188.756-191.347l-8.856-5.116v-1.084l14.57 1.817v1.084l-5.714 3.3" class="cls-52" transform="translate(-89.64 527.546)"/>
            <path id="path334" d="M188.756-193.1l-8.856-5.115 5.713-3.3 8.857 5.114-5.714 3.3" class="cls-53" transform="translate(-89.64 528.216)"/>
            <path id="path336" d="M200.167-184.753l-8.86-5.114v-1.085l14.57 1.817v1.084l-5.711 3.3" class="cls-52" transform="translate(-91.567 526.431)"/>
            <path id="path338" d="M200.167-186.508l-8.86-5.114 5.713-3.3 8.858 5.114-5.711 3.3" class="cls-53" transform="translate(-91.567 527.102)"/>
            <path id="path340" d="M211.572-178.156l-8.858-5.117v-1.081l14.57 1.815v1.084l-5.713 3.3" class="cls-52" transform="translate(-93.495 525.316)"/>
            <path id="path342" d="M211.572-179.91l-8.858-5.115 5.713-3.3 8.858 5.112-5.713 3.3" class="cls-53" transform="translate(-93.495 525.987)"/>
            <path id="path344" d="M222.98-171.564l-8.858-5.112v-1.084l14.569 1.817v1.084l-5.712 3.3" class="cls-52" transform="translate(-95.423 524.202)"/>
            <path id="path346" d="M222.98-173.318l-8.858-5.112 5.712-3.3 8.858 5.115-5.712 3.3" class="cls-53" transform="translate(-95.423 524.872)"/>
            <path id="path348" d="M234.387-164.967l-8.859-5.115v-1.085l14.569 1.818v1.084l-5.711 3.3" class="cls-52" transform="translate(-97.35 523.088)"/>
            <path id="path350" d="M234.387-166.723l-8.859-5.114 5.713-3.3 8.856 5.115-5.711 3.3" class="cls-53" transform="translate(-97.35 523.758)"/>
            <path id="path352" d="M245.793-158.372l-8.855-5.111v-1.086l14.57 1.816v1.084l-5.715 3.3" class="cls-52" transform="translate(-99.278 521.973)"/>
            <path id="path354" d="M245.793-160.123l-8.855-5.117 5.712-3.3 8.859 5.113-5.715 3.3" class="cls-53" transform="translate(-99.278 522.643)"/>
            <path id="path356" d="M257.2-151.778l-8.859-5.112v-1.084l14.574 1.817v1.084l-5.715 3.3" class="cls-52" transform="translate(-101.205 520.859)"/>
            <path id="path358" d="M257.2-153.531l-8.859-5.114 5.715-3.3 8.859 5.114-5.715 3.3" class="cls-53" transform="translate(-101.205 521.529)"/>
            <path id="path360" d="M268.609-145.18l-8.856-5.112v-1.084l14.57 1.814v1.084l-5.714 3.3" class="cls-52" transform="translate(-103.134 519.744)"/>
            <path id="path362" d="M268.609-146.934l-8.856-5.112 5.711-3.3 8.86 5.114-5.714 3.3" class="cls-53" transform="translate(-103.134 520.414)"/>
            <path id="path364" d="M280.017-138.582l-8.858-5.116v-1.086l14.573 1.817v1.083l-5.715 3.3" class="cls-52" transform="translate(-105.061 518.63)"/>
            <path id="path366" d="M280.017-140.339l-8.858-5.116 5.711-3.3 8.862 5.116-5.715 3.3" class="cls-53" transform="translate(-105.061 519.3)"/>
            <path id="path368" d="M291.423-131.992l-8.859-5.112v-1.084l14.573 1.815v1.086l-5.714 3.3" class="cls-52" transform="translate(-106.988 517.515)"/>
            <path id="path370" d="M291.423-133.744l-8.859-5.115 5.714-3.3 8.859 5.112-5.714 3.3" class="cls-53" transform="translate(-106.988 518.186)"/>
            <path id="path372" d="M302.832-125.395l-8.858-5.112v-1.084l14.57 1.816v1.083l-5.713 3.3" class="cls-52" transform="translate(-108.916 516.4)"/>
            <path id="path374" d="M302.832-127.148l-8.858-5.113 5.714-3.3 8.856 5.115-5.713 3.3" class="cls-53" transform="translate(-108.916 517.071)"/>
            <path id="path376" d="M314.239-118.8l-8.858-5.117v-1.082l14.569 1.815v1.083l-5.712 3.3" class="cls-52" transform="translate(-110.844 515.286)"/>
            <path id="path378" d="M314.239-120.552l-8.858-5.114 5.712-3.3 8.857 5.114-5.712 3.3" class="cls-53" transform="translate(-110.844 515.956)"/>
            <path id="path380" d="M173.619-189.732l-14.014-8.2v-1.085l19.726 4.906v1.084l-5.712 3.3" class="cls-52" transform="translate(-86.21 527.795)"/>
            <path id="path382" d="M173.619-191.486l-14.014-8.2 5.713-3.3 14.013 8.2-5.712 3.3" class="cls-53" transform="translate(-86.21 528.465)"/>
            <path id="path384" d="M186.076-182.509l-8.859-5.115v-1.084l14.568 1.816v1.085l-5.71 3.3" class="cls-52" transform="translate(-89.186 526.052)"/>
            <path id="path386" d="M186.076-184.264l-8.859-5.114 5.713-3.3 8.855 5.112-5.71 3.3" class="cls-53" transform="translate(-89.186 526.722)"/>
            <path id="path388" d="M197.48-175.913l-8.859-5.112v-1.085l14.573 1.817v1.08l-5.714 3.3" class="cls-52" transform="translate(-91.114 524.937)"/>
            <path id="path390" d="M197.48-177.668l-8.859-5.114 5.716-3.3 8.856 5.117-5.714 3.3" class="cls-53" transform="translate(-91.114 525.608)"/>
            <path id="path392" d="M208.886-169.318l-8.854-5.115v-1.086L214.6-173.7v1.085l-5.716 3.3" class="cls-52" transform="translate(-93.042 523.823)"/>
            <path id="path394" d="M208.886-171.074l-8.854-5.115 5.713-3.3 8.857 5.112-5.716 3.3" class="cls-53" transform="translate(-93.042 524.493)"/>
            <path id="path396" d="M220.3-162.725l-8.855-5.112v-1.083l14.565 1.82v1.085l-5.714 3.294" class="cls-52" transform="translate(-94.97 522.708)"/>
            <path id="path398" d="M220.3-164.478l-8.855-5.112 5.71-3.3 8.86 5.116-5.714 3.3" class="cls-53" transform="translate(-94.97 523.379)"/>
            <path id="path400" d="M231.7-156.128l-8.86-5.115v-1.084l14.573 1.818v1.083l-5.713 3.3" class="cls-52" transform="translate(-96.897 521.594)"/>
            <path id="path402" d="M231.7-157.884L222.845-163l5.713-3.3 8.86 5.117-5.713 3.3" class="cls-53" transform="translate(-96.897 522.265)"/>
            <path id="path404" d="M243.113-149.532l-8.86-5.115v-1.085l14.57 1.818v1.084l-5.711 3.3" class="cls-52" transform="translate(-98.825 520.48)"/>
            <path id="path406" d="M243.113-151.284l-8.86-5.118 5.714-3.3 8.856 5.115-5.711 3.3" class="cls-53" transform="translate(-98.825 521.15)"/>
            <path id="path408" d="M254.519-142.938l-8.86-5.114v-1.086l14.573 1.819v1.084l-5.713 3.3" class="cls-52" transform="translate(-100.752 519.365)"/>
            <path id="path410" d="M254.519-144.692l-8.86-5.115 5.715-3.3 8.857 5.115-5.713 3.3" class="cls-53" transform="translate(-100.752 520.035)"/>
            <path id="path412" d="M265.927-136.341l-8.859-5.116v-1.083l14.57 1.814v1.087l-5.712 3.3" class="cls-52" transform="translate(-102.68 518.25)"/>
            <path id="path414" d="M265.927-138.1l-8.859-5.115 5.713-3.3 8.857 5.112-5.712 3.3" class="cls-53" transform="translate(-102.68 518.921)"/>
            <path id="path416" d="M277.334-129.744l-8.858-5.116v-1.081l14.57 1.815v1.083l-5.713 3.3" class="cls-52" transform="translate(-104.608 517.135)"/>
            <path id="path418" d="M277.334-131.5l-8.858-5.112 5.713-3.3 8.857 5.115-5.713 3.3" class="cls-53" transform="translate(-104.608 517.806)"/>
            <path id="path420" d="M288.742-123.152l-8.857-5.115v-1.083l14.569 1.817v1.085l-5.712 3.3" class="cls-52" transform="translate(-106.536 516.022)"/>
            <path id="path422" d="M288.742-124.905l-8.857-5.116 5.71-3.3 8.86 5.113-5.712 3.3" class="cls-53" transform="translate(-106.536 516.692)"/>
            <path id="path424" d="M304.434-114.036l-13.146-7.632v-1.084l18.858 4.335v1.08l-5.713 3.3" class="cls-52" transform="translate(-108.463 514.907)"/>
            <path id="path426" d="M304.434-115.793l-13.146-7.63 5.714-3.3 13.144 7.634-5.713 3.3" class="cls-53" transform="translate(-108.463 515.578)"/>
            <path id="path428" d="M161.124-186.576l-10.537-6.142v-1.08l15.495 2.4v1.084l-4.957 3.74" class="cls-52" transform="translate(-84.686 526.912)"/>
            <path id="path430" d="M161.449-188.15l-10.863-6.319 5.711-3.3 10.864 6.322-5.712 3.3" class="cls-53" transform="translate(-84.686 527.583)"/>
            <path id="path432" d="M171.96-180.306l-8.855-5.112v-1.082l14.572 1.817v1.084l-5.716 3.3" class="cls-52" transform="translate(-86.802 525.68)"/>
            <path id="path434" d="M171.96-182.061l-8.855-5.114 5.711-3.3 8.861 5.116-5.716 3.3" class="cls-53" transform="translate(-86.802 526.35)"/>
            <path id="path436" d="M183.37-173.71l-8.86-5.114v-1.086l14.574 1.817v1.084l-5.714 3.3" class="cls-52" transform="translate(-88.729 524.565)"/>
            <path id="path438" d="M183.37-175.465l-8.86-5.115 5.714-3.3 8.86 5.114-5.714 3.3" class="cls-53" transform="translate(-88.729 525.235)"/>
            <path id="path440" d="M194.779-167.116l-8.86-5.112v-1.08l14.57 1.813v1.085l-5.711 3.3" class="cls-52" transform="translate(-90.657 523.45)"/>
            <path id="path442" d="M194.779-168.867l-8.86-5.113 5.713-3.3 8.858 5.115-5.711 3.3" class="cls-53" transform="translate(-90.657 524.121)"/>
            <path id="path444" d="M206.184-160.516l-8.855-5.118v-1.081L211.9-164.9v1.084l-5.713 3.3" class="cls-52" transform="translate(-92.585 522.336)"/>
            <path id="path446" d="M206.184-162.274l-8.855-5.112 5.713-3.3 8.855 5.113-5.713 3.3" class="cls-53" transform="translate(-92.585 523.006)"/>
            <path id="path448" d="M217.591-153.924l-8.856-5.115v-1.081l14.573 1.817v1.081l-5.716 3.3" class="cls-52" transform="translate(-94.512 521.221)"/>
            <path id="path450" d="M217.591-155.677l-8.856-5.114 5.714-3.3 8.859 5.116-5.716 3.3" class="cls-53" transform="translate(-94.512 521.892)"/>
            <path id="path452" d="M229-147.328l-8.859-5.114v-1.086l14.572 1.817v1.083l-5.713 3.3" class="cls-52" transform="translate(-96.44 520.107)"/>
            <path id="path454" d="M229-149.084l-8.859-5.115 5.712-3.3 8.86 5.115-5.713 3.3" class="cls-53" transform="translate(-96.44 520.778)"/>
            <path id="path456" d="M240.41-140.732l-8.861-5.114v-1.084l14.569 1.815v1.085l-5.709 3.3" class="cls-52" transform="translate(-98.368 518.992)"/>
            <path id="path458" d="M240.41-142.485l-8.861-5.115 5.714-3.3 8.855 5.115-5.709 3.3" class="cls-53" transform="translate(-98.368 519.663)"/>
            <path id="path460" d="M251.816-134.135l-8.862-5.115v-1.086l14.574 1.815v1.087l-5.712 3.3" class="cls-52" transform="translate(-100.295 517.878)"/>
            <path id="path462" d="M251.816-135.893l-8.862-5.114 5.715-3.3 8.859 5.112-5.712 3.3" class="cls-53" transform="translate(-100.295 518.549)"/>
            <path id="path464" d="M263.224-127.541l-8.856-5.116v-1.085l14.57 1.817v1.084l-5.714 3.3" class="cls-52" transform="translate(-102.224 516.764)"/>
            <path id="path466" d="M263.224-129.294l-8.856-5.117 5.711-3.294 8.86 5.111-5.714 3.3" class="cls-53" transform="translate(-102.224 517.433)"/>
            <path id="path468" d="M274.63-120.947l-8.858-5.112v-1.084l14.569 1.816v1.085l-5.712 3.3" class="cls-52" transform="translate(-104.151 515.648)"/>
            <path id="path470" d="M274.63-122.7l-8.858-5.113 5.712-3.3 8.858 5.113-5.712 3.3" class="cls-53" transform="translate(-104.151 516.319)"/>
            <path id="path472" d="M286.037-114.35l-8.856-5.119v-1.08l14.571 1.816v1.082l-5.714 3.3" class="cls-52" transform="translate(-106.079 514.534)"/>
            <path id="path474" d="M286.037-116.1l-8.856-5.116 5.713-3.3 8.858 5.113-5.714 3.3" class="cls-53" transform="translate(-106.079 515.205)"/>
            <path id="path476" d="M296.481-108.317l-7.895-4.553v-1.082l13.605 1.253v1.085l-5.711 3.3" class="cls-52" transform="translate(-108.006 513.419)"/>
            <path id="path478" d="M296.481-110.07l-7.895-4.553 5.713-3.3 7.892 4.552-5.711 3.3" class="cls-53" transform="translate(-108.006 514.09)"/>
            <path id="path480" d="M156.6-178.794l-15.1-8.706v-1.087l20.815 5.414v1.079l-5.714 3.3" class="cls-52" transform="translate(-83.151 526.032)"/>
            <path id="path482" d="M156.6-180.544l-15.1-8.713 5.712-3.3 15.1 8.71-5.714 3.3" class="cls-53" transform="translate(-83.151 526.702)"/>
            <path id="path484" d="M169.28-171.466l-8.859-5.114v-1.084l14.569 1.817v1.083l-5.711 3.3" class="cls-52" transform="translate(-86.348 524.186)"/>
            <path id="path486" d="M169.28-173.222l-8.859-5.112 5.714-3.3 8.855 5.115-5.711 3.3" class="cls-53" transform="translate(-86.348 524.856)"/>
            <path id="path488" d="M180.689-164.872l-8.86-5.115v-1.085l14.57 1.817v1.085l-5.711 3.3" class="cls-52" transform="translate(-88.276 523.072)"/>
            <path id="path490" d="M180.689-166.626l-8.86-5.116 5.713-3.3 8.858 5.112-5.711 3.3" class="cls-53" transform="translate(-88.276 523.742)"/>
            <path id="path492" d="M192.094-158.274l-8.86-5.113v-1.086l14.572 1.816v1.085l-5.712 3.3" class="cls-52" transform="translate(-90.203 521.957)"/>
            <path id="path494" d="M192.094-160.03l-8.86-5.114 5.714-3.3 8.858 5.116-5.712 3.3" class="cls-53" transform="translate(-90.203 522.628)"/>
            <path id="path496" d="M203.5-151.68l-8.857-5.117v-1.083l14.57 1.817v1.084l-5.713 3.3" class="cls-52" transform="translate(-92.131 520.843)"/>
            <path id="path498" d="M203.5-153.436l-8.857-5.115 5.712-3.3 8.859 5.115-5.713 3.3" class="cls-53" transform="translate(-92.131 521.513)"/>
            <path id="path500" d="M214.91-145.085l-8.859-5.112v-1.089l14.572 1.818v1.084l-5.713 3.3" class="cls-52" transform="translate(-94.059 519.728)"/>
            <path id="path502" d="M214.91-146.839l-8.859-5.117 5.712-3.294 8.86 5.112-5.713 3.3" class="cls-53" transform="translate(-94.059 520.398)"/>
            <path id="path504" d="M226.318-138.49l-8.86-5.114v-1.081l14.569 1.816v1.084l-5.71 3.3" class="cls-52" transform="translate(-95.986 518.613)"/>
            <path id="path506" d="M226.318-140.244l-8.86-5.112 5.713-3.3 8.856 5.116-5.71 3.3" class="cls-53" transform="translate(-95.986 519.284)"/>
            <path id="path508" d="M237.723-131.895l-8.855-5.114v-1.081l14.569 1.814v1.086l-5.714 3.3" class="cls-52" transform="translate(-97.914 517.499)"/>
            <path id="path510" d="M237.723-133.648l-8.855-5.113 5.713-3.3 8.856 5.115-5.714 3.3" class="cls-53" transform="translate(-97.914 518.17)"/>
            <path id="path512" d="M249.133-125.3l-8.859-5.115v-1.085l14.57 1.817v1.082l-5.712 3.3" class="cls-52" transform="translate(-99.842 516.384)"/>
            <path id="path514" d="M249.133-127.052l-8.859-5.115 5.713-3.3 8.858 5.116-5.712 3.3" class="cls-53" transform="translate(-99.842 517.055)"/>
            <path id="path516" d="M260.539-118.7l-8.859-5.116v-1.084l14.57 1.817V-122l-5.712 3.3" class="cls-52" transform="translate(-101.77 515.27)"/>
            <path id="path518" d="M260.539-120.46l-8.859-5.113 5.713-3.3 8.858 5.115-5.712 3.3" class="cls-53" transform="translate(-101.77 515.94)"/>
            <path id="path520" d="M271.946-112.108l-8.86-5.113v-1.079l14.573 1.814v1.085l-5.713 3.3" class="cls-52" transform="translate(-103.697 514.155)"/>
            <path id="path522" d="M271.946-113.861l-8.86-5.114 5.715-3.3 8.858 5.113-5.713 3.3" class="cls-53" transform="translate(-103.697 514.826)"/>
            <path id="path524" d="M286.693-103.682l-12.193-6.944v-1.085l17.907 3.649v1.083l-5.712 3.3" class="cls-52" transform="translate(-105.625 513.041)"/>
            <path id="path526" d="M286.693-105.434l-12.193-6.947 5.711-3.3 12.2 6.948-5.712 3.3" class="cls-53" transform="translate(-105.625 513.711)"/>
            <path id="path528" d="M143.375-176.1l-10.735-6.291v-1.083l16.452 2.994v1.084l-5.717 3.3" class="cls-52" transform="translate(-81.654 525.168)"/>
            <path id="path530" d="M143.375-177.852l-10.735-6.292 5.712-3.3 10.74 6.291-5.717 3.3" class="cls-53" transform="translate(-81.654 525.838)"/>
            <path id="path532" d="M155.169-169.261l-8.859-5.116v-1.081l14.573 1.814v1.083l-5.714 3.3" class="cls-52" transform="translate(-83.964 523.813)"/>
            <path id="path534" d="M155.169-171.016l-8.859-5.114 5.713-3.3 8.86 5.115-5.714 3.3" class="cls-53" transform="translate(-83.964 524.484)"/>
            <path id="path536" d="M166.577-162.671l-8.858-5.111v-1.08l14.569 1.813v1.085l-5.712 3.294" class="cls-52" transform="translate(-85.892 522.698)"/>
            <path id="path538" d="M166.577-164.421l-8.858-5.112 5.713-3.3 8.856 5.113-5.712 3.3" class="cls-53" transform="translate(-85.892 523.37)"/>
            <path id="path540" d="M225.2-128.694l-56.075-32.492v-1.084l61.785 29.194v1.082l-5.711 3.3" class="cls-52" transform="translate(-87.819 521.584)"/>
            <path id="path542" d="M225.2-130.448l-56.074-32.492 5.713-3.3 56.072 32.494-5.711 3.3" class="cls-53" transform="translate(-87.819 522.255)"/>
            <path id="path544" d="M246.428-116.5l-8.857-5.112v-1.088l14.569 1.816v1.085l-5.712 3.3" class="cls-52" transform="translate(-99.385 514.897)"/>
            <path id="path546" d="M246.428-118.253l-8.857-5.113 5.713-3.3 8.856 5.114-5.712 3.3" class="cls-53" transform="translate(-99.385 515.568)"/>
            <path id="path548" d="M257.834-109.9l-8.858-5.118v-1.082l14.572 1.816v1.084l-5.714 3.3" class="cls-52" transform="translate(-101.313 513.783)"/>
            <path id="path550" d="M257.834-111.658l-8.858-5.114 5.713-3.3 8.859 5.115-5.714 3.3" class="cls-53" transform="translate(-101.313 514.453)"/>
            <path id="path552" d="M269.244-103.309l-8.857-5.113v-1.085l14.57 1.817v1.083l-5.713 3.3" class="cls-52" transform="translate(-103.241 512.668)"/>
            <path id="path554" d="M269.244-105.061l-8.857-5.116 5.711-3.3 8.86 5.114-5.713 3.3" class="cls-53" transform="translate(-103.241 513.339)"/>
            <path id="path556" d="M278.8-97.813l-7.012-4.015v-1.084l12.722.717v1.084l-5.711 3.3" class="cls-52" transform="translate(-105.168 511.554)"/>
            <path id="path558" d="M278.8-99.568l-7.012-4.014 5.713-3.3 7.009 4.014-5.711 3.3" class="cls-53" transform="translate(-105.168 512.224)"/>
            <g id="g560" transform="translate(280.079 343.761)">
                <g id="g562" class="cls-54">
                    <path id="path574" d="M463.322-138.854l-55-19.059 39.9-23.073 9.339 9.959-6.546 3.793 6.159 3.559 4.718-2.735-4.718 2.735v7.1l9.038-5.236 11.317 12.066-14.2 10.889" class="cls-55" transform="translate(-408.318 180.986)"/>
                </g>
            </g>
            <g id="g576" transform="translate(278.172 342.641)">
                <g id="g578" class="cls-56">
                    <path id="path590" d="M407.93-158.141l-1.907-.661 40.759-23.532 1.052 1.12-39.9 23.073" class="cls-57" transform="translate(-406.023 182.334)"/>
                </g>
            </g>
            <path id="path592" d="M406.023-159.631v-6.278l36.938-21.328 3.82 4.074-40.759 23.533" class="cls-58" transform="translate(-127.851 525.803)"/>
            <path id="path594" d="M406.023-166.508v-4.543l34.177-19.731 2.765 2.946-36.938 21.328" class="cls-59" transform="translate(-127.851 526.403)"/>
            <path id="path596" d="M406.023-171.6v-4.163l31.642-18.269 2.532 2.7-34.174 19.732" class="cls-60" transform="translate(-127.851 526.952)"/>
            <path id="path598" d="M406.023-176.363v-4.554l28.871-16.669 2.771 2.954-31.642 18.269" class="cls-61" transform="translate(-127.851 527.552)"/>
            <path id="path600" d="M406.023-181.817v-6.82l24.721-14.273 4.15 4.424-28.871 16.669" class="cls-62" transform="translate(-127.851 528.452)"/>
            <path id="path602" d="M406.023-189.424v-5.967l21.09-12.177 3.631 3.87-24.721 14.273" class="cls-63" transform="translate(-127.851 529.239)"/>
            <path id="path604" d="M406.023-195.96v-4.316l18.465-10.661 2.625 2.8-21.09 12.177" class="cls-59" transform="translate(-127.851 529.808)"/>
            <path id="path606" d="M406.023-200.8v-3.955l16.059-9.272 2.407 2.565-18.466 10.662" class="cls-60" transform="translate(-127.851 530.33)"/>
            <path id="path608" d="M406.023-205.323v-4.327l13.426-7.753 2.633 2.808-16.059 9.272" class="cls-61" transform="translate(-127.851 530.901)"/>
            <path id="path610" d="M406.023-210.231v-4.413l10.741-6.2 2.685 2.862-13.426 7.753" class="cls-19" transform="translate(-127.851 531.483)"/>
            <path id="path612" d="M406.023-215.4v-5.7l7.271-4.2 3.47 3.7-10.741 6.2" class="cls-64" transform="translate(-127.851 532.235)"/>
            <path id="path614" d="M406.023-221.644v-4.125l4.761-2.749 2.51 2.676-7.271 4.2" class="cls-59" transform="translate(-127.851 532.779)"/>
            <path id="path616" d="M406.023-226.268v-3.781l2.461-1.42 2.3 2.452-4.761 2.749" class="cls-60" transform="translate(-127.851 533.278)"/>
            <path id="path618" d="M406.023-230.582v-4.045l2.461 2.627-2.461 1.42" class="cls-61" transform="translate(-127.851 533.812)"/>
            <path id="path620" d="M406.023-237.53l24.636-14.27 26.141 19.2-24.632 14.272-26.148-19.2" class="cls-5" transform="translate(-127.851 536.714)"/>
            <path id="path622" d="M437.48-207.314l24.639-14.277v-7.1l-24.632 14.272-.007 7.109" class="cls-3" transform="translate(-133.167 532.809)"/>
            <path id="path624" d="M437.48-205.875l24.639-14.271 6.152 3.552-24.631 14.275-6.16-3.556" class="cls-5" transform="translate(-133.167 531.365)"/>
            <path id="path626" d="M444.887-194.488l24.636-14.276v-7.108L444.891-201.6v7.109" class="cls-3" transform="translate(-134.418 530.642)"/>
            <path id="path628" d="M444.887-193.03l24.636-14.27 6.153 3.555-24.631 14.276-6.157-3.556" class="cls-5" transform="translate(-134.418 529.195)"/>
            <path id="path630" d="M452.291-181.644l24.636-14.276v-7.108L452.3-188.752v7.108" class="cls-3" transform="translate(-135.669 528.472)"/>
            <path id="path632" d="M452.291-180.185l24.636-14.275 6.155 3.554-24.632 14.276-6.158-3.556" class="cls-5" transform="translate(-135.669 527.024)"/>
            <path id="path634" d="M459.7-168.8l24.637-14.274v-7.109L459.7-175.907v7.107" class="cls-3" transform="translate(-136.921 526.301)"/>
            <path id="path636" d="M459.7-167.341l24.637-14.274 6.154 3.555-24.631 14.278-6.159-3.559" class="cls-5" transform="translate(-136.921 524.853)"/>
            <path id="path638" d="M467.1-155.955l24.636-14.272v-7.109l-24.631 14.278v7.1" class="cls-3" transform="translate(-138.172 524.131)"/>
            <path id="path640" d="M467.1-154.5l24.637-14.272 6.152 3.553-24.629 14.279-6.16-3.56" class="cls-5" transform="translate(-138.172 522.682)"/>
            <path id="path642" d="M474.507-143.109l24.636-14.277v-7.106l-24.631 14.275v7.108" class="cls-3" transform="translate(-139.423 521.96)"/>
            <path id="path644" d="M474.507-141.656l24.636-14.275 6.155 3.557-24.634 14.274-6.157-3.555" class="cls-5" transform="translate(-139.423 520.513)"/>
            <path id="path646" d="M481.914-130.27l24.636-14.276v-7.1l-24.633 14.272v7.108" class="cls-3" transform="translate(-140.675 519.79)"/>
            <path id="path648" d="M456.781-165.683v-7.107l-6.157-3.552v-7.158l-6.143-3.5v-7.107l-6.157-3.551v-7.106l-6.153-3.553v-7.109l-26.148-19.2 56.911 86.709 6.169 3.553v-7.106l-6.169-3.49v-7.166l-6.153-3.557" class="cls-6" transform="translate(-127.851 533.812)"/>
            <path id="path650" d="M284.9-304.445v30.236c0 6.218 4.111 12.439 12.329 17.184 16.436 9.489 43.087 9.489 59.527 0 8.221-4.746 12.329-10.967 12.327-17.19v-30.23H284.9" class="cls-65" transform="translate(-107.384 545.61)"/>
            <path id="path652" d="M318.933-265.906l-72.144-41.654v-2h144.287v2l-72.143 41.654" class="cls-66" transform="translate(-100.943 546.473)"/>
            <path id="path654" d="M318.933-276.374l-72.144-41.652 72.144-41.654 72.143 41.654-72.143 41.652" class="cls-45" transform="translate(-100.943 554.943)"/>
            <path id="path656" d="M373.362-264.009h-2.5v-25.651l-37.932-19.006 1.119-2.232 39.313 19.7v27.192" class="cls-67" transform="translate(-115.499 546.7)"/>
            <path id="path658" d="M338.132-309.519c0 1.377-1.839 2.5-4.115 2.5s-4.117-1.118-4.117-2.5 1.844-2.5 4.117-2.5 4.115 1.119 4.115 2.5" class="cls-67" transform="translate(-114.987 546.889)"/>
            <path id="path660" d="M382.481-243.839v-12.695a2.9 2.9 0 0 0-2.9-2.9 2.9 2.9 0 0 0-2.9 2.9v12.695h5.8" class="cls-68" transform="translate(-122.893 538.004)"/>
            <g id="g662" transform="translate(74.187 387.189)">
                <g id="g664" class="cls-69">
                    <path id="path676" d="M160.558-81.827l37.757-46.9 18.785 10.842s-12.462 6.8-28.127 21.284-28.412 14.773-28.412 14.773" class="cls-70" transform="translate(-160.558 128.728)"/>
                </g>
            </g>
            <path id="path678" d="M224.775-118.563l-18.782-10.843 2.331-2.9.671-.438 16.341 9.435-.562.33v4.412" class="cls-71" transform="translate(-94.049 516.594)"/>
            <path id="path680" d="M225.947-123.731l-16.341-9.435 3.22-2.1 16.492 9.554-3.371 1.978" class="cls-72" transform="translate(-94.66 517.021)"/>
            <g id="g682" transform="translate(156.019 349.771)">
                <g id="g684" class="cls-73">
                    <path id="path696" d="M277.653-155.678l-18.623-10.751 11.244-7.325 18.409 10.628v.1l-11.03 7.345" class="cls-74" transform="translate(-259.03 173.754)"/>
                </g>
            </g>
            <path id="path698" d="M290.969-164.382L272.56-175.01l.175-6.178 18.2 10.51.029 6.3" class="cls-58" transform="translate(-105.298 524.781)"/>
            <path id="path700" d="M290.976-171.588l-18.2-10.51.127-4.47 18.055 10.424.022 4.555" class="cls-59" transform="translate(-105.334 525.69)"/>
            <path id="path702" d="M290.98-176.976L272.925-187.4l.115-4.1 17.921 10.346.019 4.174" class="cls-60" transform="translate(-105.359 526.523)"/>
            <path id="path704" d="M290.984-182.061l-17.921-10.346.127-4.48 17.772 10.26.022 4.565" class="cls-61" transform="translate(-105.383 527.434)"/>
            <path id="path706" d="M290.988-188.055l-17.772-10.26.2-7.027 17.54 10.126.033 7.161" class="cls-62" transform="translate(-105.409 528.863)"/>
            <path id="path708" d="M291-196.409l-17.54-10.126.167-5.869 17.345 10.014.028 5.981" class="cls-63" transform="translate(-105.449 530.056)"/>
            <path id="path710" d="M291-203.254l-17.345-10.014.12-4.247 17.205 9.933.02 4.328" class="cls-59" transform="translate(-105.483 530.92)"/>
            <path id="path712" d="M291.006-208.373l-17.206-9.934.111-3.89 17.076 9.859.019 3.965" class="cls-60" transform="translate(-105.507 531.711)"/>
            <path id="path714" d="M291.01-213.032l-17.076-9.859.057-2.03 1.521-1.386 15.477 8.936.021 4.339" class="cls-61" transform="translate(-105.53 532.406)"/>
            <path id="path716" d="M291.31-218.01l-15.477-8.936 3.449-3.142 12 6.931.023 5.148" class="cls-19" transform="translate(-105.851 533.045)"/>
            <path id="path718" d="M291.988-223.868l-12-6.931 3.832-3.49 8.146 4.7.027 5.718" class="cls-64" transform="translate(-106.552 533.754)"/>
            <path id="path720" d="M292.74-230.1l-8.146-4.7 2.771-2.526 5.355 3.092.02 4.136" class="cls-59" transform="translate(-107.331 534.268)"/>
            <path id="path722" d="M293.284-234.707l-5.355-3.092 2.54-2.314 2.8 1.615.018 3.791" class="cls-60" transform="translate(-107.895 534.739)"/>
            <path id="path724" d="M293.782-239.012l-2.8-1.615 2.779-2.531.019 4.146" class="cls-61" transform="translate(-108.411 535.253)"/>
            <path id="path726" d="M294.328-243.158" class="cls-75" transform="translate(-108.976 535.253)"/>
            <path id="path728" d="M237.836-134.593L221-144.349l.8-.519 5.12 2.955.622-.359v.726l8.855 5.114.624-.359v.725l1.678.969-.859.5m7.454-4.374l-2.56-1.478-.623.36v-.728l-8.856-5.115-.625.361v-.725l-4.582-2.647.776-.505.326.187.62-.358v.726l8.861 5.114.617-.357v.725l6.863 3.96-.818.48m7.417-4.352l-7.747-4.471-.624.359v-.726l-8.855-5.115-.622.359v-.465l.962-.627 5.053 2.917.619-.358v.725l8.86 5.114.622-.359v.725l2.524 1.458-.791.464m7.388-4.336l-3.408-1.968-.622.359v-.724l-8.857-5.115-.624.359v-.726l-4.514-2.607.776-.505.255.147.622-.359v.726l8.859 5.112.624-.359v.73l7.707 4.449-.817.48m7.415-4.351l-8.595-4.961-.619.358v-.725l-8.859-5.114-.622.359v-.382l3.788-2.469 18.622 10.751-3.716 2.182" class="cls-72" transform="translate(-96.585 522.036)"/>
            <path id="path730" d="M247.542-157.932l-.255-.147 5.97-3.889v.382l-5.094 2.937v.358l-.622.359" class="cls-76" transform="translate(-101.027 521.534)"/>
            <path id="path732" d="M257.2-151.778l-8.859-5.112v-1.084l8.859 5.114 5.715-3.3v.725l-5.091 2.942v.353l-.624.359" class="cls-76" transform="translate(-101.205 520.859)"/>
            <path id="path734" d="M257.2-153.531l-8.859-5.114 5.094-2.937.622-.359 8.859 5.114-5.715 3.3" class="cls-77" transform="translate(-101.205 521.529)"/>
            <path id="path736" d="M267.46-145.843l-7.707-4.449v-1.084l8.638 4.986-.931.546" class="cls-76" transform="translate(-103.134 519.744)"/>
            <path id="path738" d="M268.391-147.061l-8.638-4.986 5.091-2.942.619-.358 8.595 4.961-5.668 3.325" class="cls-77" transform="translate(-103.134 520.414)"/>
            <path id="path740" d="M243.887-149.163l-5.053-2.917.881-.574 4.172 2.41 5.711-3.3v.726l-5.091 2.936v.361l-.619.358" class="cls-76" transform="translate(-99.599 520.11)"/>
            <path id="path742" d="M244.066-150.774l-4.172-2.41 5.368-3.5 4.514 2.607-5.711 3.3" class="cls-77" transform="translate(-99.778 520.64)"/>
            <path id="path744" d="M254.519-142.938l-8.86-5.114v-1.086l8.86 5.115 5.713-3.3v.724l-5.091 2.94v.358l-.622.359" class="cls-76" transform="translate(-100.752 519.365)"/>
            <path id="path746" d="M254.519-144.692l-8.86-5.115 5.091-2.936.624-.359 8.857 5.115-5.713 3.3" class="cls-77" transform="translate(-100.752 520.035)"/>
            <path id="path748" d="M259.593-140l-2.524-1.458v-1.083l3.455 1.994-.931.546" class="cls-76" transform="translate(-102.68 518.25)"/>
            <path id="path750" d="M260.524-141.216l-3.455-1.994 5.091-2.94.622-.359 3.408 1.968-5.666 3.325" class="cls-77" transform="translate(-102.68 518.921)"/>
            <path id="path752" d="M230.736-146.906l-.326-.187 6.039-3.935v.465l-5.092 2.941v.358l-.62.358" class="cls-76" transform="translate(-98.175 519.685)"/>
            <path id="path754" d="M240.41-140.732l-8.861-5.114v-1.084l8.861 5.115 5.709-3.3v.726l-5.091 2.938v.361l-.617.357" class="cls-76" transform="translate(-98.368 518.992)"/>
            <path id="path756" d="M240.41-142.485l-8.861-5.115 5.092-2.941.622-.359 8.855 5.115-5.709 3.3" class="cls-77" transform="translate(-98.368 519.663)"/>
            <path id="path758" d="M249.817-135.29l-6.863-3.96v-1.086l7.8 4.5-.933.547" class="cls-76" transform="translate(-100.295 517.878)"/>
            <path id="path760" d="M250.75-136.508l-7.8-4.5 5.091-2.938.624-.359 7.747 4.471-5.666 3.325" class="cls-77" transform="translate(-100.295 518.549)"/>
            <path id="path762" d="M227.078-138.121l-5.12-2.955.881-.574 4.239 2.447 5.71-3.3v.725l-5.088 2.94v.356l-.622.359" class="cls-76" transform="translate(-96.747 518.244)"/>
            <path id="path764" d="M227.257-139.742l-4.239-2.447 5.367-3.5 4.582 2.647-5.71 3.3" class="cls-77" transform="translate(-96.926 518.782)"/>
            <path id="path766" d="M237.723-131.895l-8.855-5.114v-1.081l8.855 5.113 5.714-3.3v.728l-5.09 2.939v.357l-.624.359" class="cls-76" transform="translate(-97.914 517.499)"/>
            <path id="path768" d="M237.723-133.648l-8.855-5.113 5.088-2.94.625-.361 8.856 5.115-5.714 3.3" class="cls-77" transform="translate(-97.914 518.17)"/>
            <path id="path770" d="M241.952-129.445l-1.678-.97v-1.085l2.606 1.5-.929.546" class="cls-76" transform="translate(-99.842 516.384)"/>
            <path id="path772" d="M242.88-130.662l-2.606-1.5 5.09-2.939.623-.36 2.56 1.478-5.666 3.325" class="cls-77" transform="translate(-99.842 517.055)"/>
            <path id="path774" d="M229.973-125.826l-16.492-9.554.881-.574 16.539 9.583-.928.545" class="cls-76" transform="translate(-95.314 517.138)"/>
            <path id="path776" d="M231.08-127.082l-16.539-9.583 5.367-3.5 16.836 9.756-5.664 3.324" class="cls-77" transform="translate(-95.493 517.849)"/>
            <path id="path778" d="M182.911-119.088c-2.824 4.019-18.542 18.394-23.183 15.134s3.553-22.923 6.378-26.941l87-123.833c2.823-4.018 8.874-4.632 13.516-1.372s6.113 9.161 3.29 13.179l-87 123.833" class="cls-78" transform="translate(-85.996 537.794)"/>
            <path id="path780" d="M266.624-255.98a11.7 11.7 0 0 0-2.97-1.5 8.9 8.9 0 0 1 .2 9.962l-87 123.834c-2.172 3.09-11.966 12.3-18.486 14.908-.147 2.328.214 4.14 1.361 4.946 4.641 3.26 20.359-11.116 23.183-15.134l87-123.833c2.823-4.018 1.35-9.919-3.29-13.179" class="cls-79" transform="translate(-85.996 537.674)"/>
            <path id="path782" d="M169.14-110.207l-3.034 4.319c-2.824 4.019-11.017 23.68-6.378 26.941s20.359-11.116 23.183-15.134l3.034-4.319-16.805-11.807" class="cls-80" transform="translate(-85.996 512.787)"/>
            <path id="path784" d="M180.912-100.325l-2.194 3.125c-2.823 4.019-15.24 21.873-19.881 18.613a2.852 2.852 0 0 0 .976 1.312c4.641 3.26 20.359-11.116 23.183-15.134l3.034-4.319-5.118-3.6" class="cls-81" transform="translate(-86.08 511.117)"/>
            <path id="path786" d="M241.269-182.312l-13.066-9.18-6.921-4.861 37.963-54.034 19.987 14.042-37.963 54.033" class="cls-45" transform="translate(-96.633 536.475)"/>
            <path id="path788" d="M270.613-240.775L232.7-186.818l-11.365-7.982-.053.076 6.921 4.861 13.066 9.18 37.963-54.033-8.618-6.055" class="cls-82" transform="translate(-96.633 534.851)"/>
            <path id="path790" d="M282.318-230.386l-19.986-14.042 2.2-3.13 19.987 14.042-2.2 3.13" class="cls-83" transform="translate(-103.569 535.997)"/>
            <path id="path792" d="M279.306-237.693s9.744 3.782 2.769 14.917-24 29.1-25.686 36.09-8.32 6.248-8.508 1.172 5.992-10.525 11.673-18.05 23.039-28.763 16.484-36.426l3.269 2.3" class="cls-80" transform="translate(-101.127 534.718)"/>
            <path id="path794" d="M465.264-594.649l-76.306 29.865 32.9 3.919z" class="cls-8" transform="translate(-124.967 594.649)"/>
            <path id="path796" d="M427.906-560.929l5.094 14.24 38.846-47.961z" class="cls-5" transform="translate(-131.549 594.649)"/>
            <path id="path798" d="M439.852-557.653l-5.817 10.964 38.846-47.961z" class="cls-3" transform="translate(-132.584 594.649)"/>
            <path id="path800" d="M474.064-594.649l-10.274 50.307-22.755-13.311z" class="cls-8" transform="translate(-133.767 594.649)"/>
            <path id="path802" d="M425.133-537.325l-1.694-1.429a769.898 769.898 0 0 1 2.87-3.384l1.683 1.44s-1.023 1.2-2.859 3.373" class="cls-6" transform="translate(-130.794 585.776)"/>
            <path id="path804" d="M394.951-521.656l-1.71-1.408c2.069-2.512 3.969-4.8 5.661-6.832l1.7 1.418c-1.69 2.028-3.588 4.315-5.654 6.822zm-11.2 13.728l-1.725-1.393c1.93-2.391 3.8-4.694 5.59-6.886l1.716 1.4q-2.681 3.286-5.58 6.88zM372.7-494.083l-1.74-1.372q2.8-3.548 5.511-6.948l1.732 1.382q-2.7 3.389-5.5 6.938zm-10.877 13.977l-1.756-1.35q2.716-3.54 5.423-7.017l1.748 1.361q-2.694 3.464-5.415 7.006zm-10.656 14.139l-1.781-1.317q2.629-3.555 5.309-7.109l1.771 1.335q-2.673 3.539-5.3 7.091zm-10.361 14.348l-1.814-1.273q2.516-3.582 5.155-7.229l1.8 1.3q-2.623 3.63-5.137 7.2zm-9.916 14.64l-1.863-1.2a398.704 398.704 0 0 1 4.915-7.4l1.834 1.244a402.149 402.149 0 0 0-4.886 7.364zm-8.24 15.444l-2.038-.87a104.994 104.994 0 0 1 3.856-8.077l1.957 1.04a103.89 103.89 0 0 0-3.773 7.907zm-5.543 16.614l-2.153-.531a112.566 112.566 0 0 1 2.485-8.588l2.1.7a110.514 110.514 0 0 0-2.431 8.419zm216.144 10.256a58.1 58.1 0 0 0-4.91-7.161l1.731-1.384a60.052 60.052 0 0 1 5.1 7.435zm-218.894 7.029l-2.21-.157c.208-2.933.555-5.925 1.03-8.891l2.187.349a101.201 101.201 0 0 0-1.006 8.699zm224.965 9.122a50.484 50.484 0 0 0-2.35-8.326l2.073-.783a52.881 52.881 0 0 1 2.454 8.692zM312.561-369.9a89.535 89.535 0 0 1-.64-8.94l2.216-.049c.064 2.941.275 5.874.624 8.718zm229.214 8.969l-2.191-.341a51.3 51.3 0 0 0 .622-7.908l-.007-.727 2.216-.029.007.756a53.621 53.621 0 0 1-.647 8.249zm-225.09 8.464a77.537 77.537 0 0 1-2.554-8.607l2.157-.506a75.688 75.688 0 0 0 2.481 8.36zm219.541 8.633l-1.982-.993a58.707 58.707 0 0 0 3.311-8.025l2.106.69a61.31 61.31 0 0 1-3.435 8.328zm-211.435 7.363a72.408 72.408 0 0 1-4.546-7.748l1.977-1a70.493 70.493 0 0 0 4.407 7.51zm201.329 7.461l-1.66-1.467a70.979 70.979 0 0 0 5.361-6.867l1.828 1.253a73.4 73.4 0 0 1-5.529 7.081zm-189.591 6.076a77.389 77.389 0 0 1-6.272-6.415l1.672-1.454a75.068 75.068 0 0 0 6.094 6.231zm176.334 5.964l-1.314-1.785a85.933 85.933 0 0 0 6.774-5.521l1.487 1.643a88.045 88.045 0 0 1-6.948 5.664zm-161.892 4.606a91.28 91.28 0 0 1-7.488-4.909l1.305-1.79c2.3 1.68 4.76 3.291 7.305 4.789zm146.583 4.634l-.978-1.989a105.198 105.198 0 0 0 7.691-4.189l1.142 1.9a107.41 107.41 0 0 1-7.855 4.279zm-130.474 3.076a115.618 115.618 0 0 1-8.209-3.52l.953-2a113.304 113.304 0 0 0 8.052 3.452zm113.9 3.57l-.675-2.11c2.82-.9 5.6-1.9 8.258-2.963l.822 2.058a124.754 124.754 0 0 1-8.405 3.015zm-96.871 1.709a150.863 150.863 0 0 1-8.6-2.366l.654-2.119c2.736.844 5.585 1.629 8.467 2.331zm79.567 2.617l-.4-2.178a147.72 147.72 0 0 0 8.587-1.863l.534 2.151a145.857 145.857 0 0 1-8.719 1.889zm-62.077.7a185.83 185.83 0 0 1-8.784-1.443l.411-2.176c2.824.532 5.744 1.012 8.682 1.425zm44.407 1.586l-.168-2.209c2.954-.226 5.9-.527 8.749-.9l.284 2.2c-2.889.372-5.871.678-8.864.906zm-26.7.168a222.355 222.355 0 0 1-7.9-.607l-.968-.093.217-2.2.958.093c2.636.248 5.27.45 7.827.6zm12.318.369q-1.7 0-3.42-.029l.037-2.216c2.958.05 5.876.037 8.805-.047l.061 2.216c-1.823.05-3.669.075-5.482.075" class="cls-6" transform="translate(-111.949 583.707)"/>
            <path id="path806" d="M564.443-384.581a71.13 71.13 0 0 0-3.259-2.9l1.424-1.7a72.29 72.29 0 0 1 3.358 2.992l-1.524 1.609" class="cls-6" transform="translate(-154.07 559.929)"/>
            <path id="path808" d="M152.028-328.308l-2.039-.87a59.427 59.427 0 0 1 2.856-5.567v4.516c-.239.558-.055.131-.818 1.92" class="cls-78" transform="translate(-84.585 550.73)"/>
            <path id="path810" d="M268.949-518.206a42.28 42.28 0 0 0-8.7-.589l-.088-2.214a44.764 44.764 0 0 1 9.156.617zm-25.172 4.24l-1.136-1.9a36.33 36.33 0 0 1 8.44-3.682l.619 2.126a34.176 34.176 0 0 0-7.923 3.457zm41.822 1.314a71.362 71.362 0 0 0-8.151-3.375l.715-2.1a74.023 74.023 0 0 1 8.4 3.479zM231.22-502.03l-1.808-1.281a48.987 48.987 0 0 1 5.946-6.96l1.538 1.6a46.837 46.837 0 0 0-5.676 6.641zm-8 15.651l-2.083-.756a76.321 76.321 0 0 1 3.589-8.352l1.979 1a74.175 74.175 0 0 0-3.484 8.108zm-4.415 17.144l-2.186-.366c.509-3.037 1.135-6.02 1.86-8.862l2.146.547a105.417 105.417 0 0 0-1.819 8.681zm-1.666 17.686l-2.215-.06c.081-3.046.26-6.082.535-9.021l2.206.205a138.03 138.03 0 0 0-.526 8.877zm-1.611 17.983a156.844 156.844 0 0 1-.568-9.012l2.215-.076c.1 2.93.288 5.919.56 8.885zm2.632 17.855c-.6-2.94-1.121-5.93-1.559-8.891l2.193-.324c.432 2.921.948 5.873 1.538 8.772zm4.531 17.465c-.9-2.849-1.745-5.766-2.5-8.671l2.144-.557a166.383 166.383 0 0 0 2.468 8.558zm5.391 17.045c-.767-2.825-1.621-5.7-2.542-8.536l2.107-.684c.932 2.873 1.8 5.781 2.573 8.64zm3.741 17.4c-.449-2.865-1-5.808-1.632-8.749l2.166-.468c.644 2.982 1.2 5.967 1.654 8.874zm1.577 17.691a120.132 120.132 0 0 0-.483-8.869l2.207-.2c.278 3.067.444 6.106.492 9.031zm-88.631 3.135l-2.153-.524a107.457 107.457 0 0 1 2.522-8.7l2.1.7c-.96 2.875-1.792 5.74-2.469 8.523zm89.5 14.893l-2.182-.391a83.831 83.831 0 0 0 1.081-8.775l2.211.157a85.9 85.9 0 0 1-1.113 9.008zM140.3-325.49v-.263a66.606 66.606 0 0 1 .62-8.83l2.2.295a64.436 64.436 0 0 0-.6 8.535v.247zm88.349 14.7l-1.973-1.007a54.173 54.173 0 0 0 3.312-8.121l2.112.674a56.345 56.345 0 0 1-3.45 8.454zm-84.615 3.178a36.377 36.377 0 0 1-2.87-8.76l2.174-.429a34.122 34.122 0 0 0 2.693 8.226zm73.2 11.054l-1.382-1.731a38.522 38.522 0 0 0 6.124-6.158l1.735 1.378a40.644 40.644 0 0 1-6.477 6.511zm-60.794 2.379a33.03 33.03 0 0 1-7.2-5.785l1.622-1.509a30.742 30.742 0 0 0 6.718 5.394zm44.361 5.54l-.529-2.152a42.938 42.938 0 0 0 8.215-2.9l.953 2a45.028 45.028 0 0 1-8.64 3.054zm-27.146.438a59.058 59.058 0 0 1-8.856-2.181l.7-2.1a56.793 56.793 0 0 0 8.522 2.1zm13.286 1.139c-1.381 0-2.814-.042-4.26-.126l.126-2.212a67.386 67.386 0 0 0 8.809-.048l.164 2.209c-1.56.117-3.189.176-4.839.176" class="cls-78" transform="translate(-82.948 582.211)"/>
            <path id="path812" d="M328.408-503.7a108.775 108.775 0 0 0-3.7-2.369l1.158-1.889c1.244.763 2.512 1.576 3.768 2.414l-1.231 1.844" class="cls-78" transform="translate(-114.111 580)"/>
            <g id="g814" transform="translate(353.873 318.552)">
                <g id="g816" class="cls-84">
                    <path id="path828" d="M512.677-173.83a22.9 22.9 0 0 1-10.631-2.386l-.526-.284c-5.87-3.181-5.87-8.338 0-11.518l41.16-22.3 4.283 2.319 6.14-3.326v18.967l-29.792 16.138a22.9 22.9 0 0 1-10.632 2.386" class="cls-85" transform="translate(-497.117 211.321)"/>
                </g>
            </g>
            <path id="path830" d="M569.746-201.086l18.791-10.849v-5.03l-33.647 7.3 14.856 8.577" class="cls-86" transform="translate(-153.007 530.827)"/>
            <path id="path832" d="M569.746-207.861l18.791-10.849-14.856-8.578-18.791 10.85 14.856 8.577" class="cls-87" transform="translate(-153.007 532.571)"/>
            <path id="path834" d="M586.434-215.6l2.85-1.644-4.162-2.4-2.847 1.644 4.16 2.4" class="cls-86" transform="translate(-157.634 531.279)"/>
            <path id="path836" d="M585.122-219.207l-2.471 1.427-.377-.218 2.848-1.644 4.162 2.4-.379.218-3.783-2.185" class="cls-88" transform="translate(-157.634 531.279)"/>
            <path id="path838" d="M577.764-220.6l2.848-1.644-4.16-2.4L573.6-223l4.162 2.4" class="cls-86" transform="translate(-156.169 532.125)"/>
            <path id="path840" d="M576.452-224.212l-2.471 1.426-.381-.214 2.85-1.643 4.159 2.4-.377.218-3.783-2.185" class="cls-88" transform="translate(-156.169 532.125)"/>
            <path id="path842" d="M507.6-191.519l3.51 3.289c.2-.131.4-.262.624-.387l59.06-19.395v8.9l-38.618 22.3c-5.51 3.181-14.441 3.181-19.949 0l-.493-.285c-2.851-1.645-4.223-3.82-4.123-5.976h-.011v-8.448" class="cls-14" transform="translate(-145.016 529.314)"/>
            <path id="path844" d="M511.737-199.916l38.616-22.3 20.444 11.8-38.618 22.3c-5.51 3.18-14.441 3.18-19.949 0l-.493-.285c-5.51-3.18-5.51-8.337 0-11.517" class="cls-23" transform="translate(-145.016 531.714)"/>
            <path id="path846" d="M516.411-186.326a13.508 13.508 0 0 0 12.224 0c3.373-1.948 3.373-5.108 0-7.056a13.508 13.508 0 0 0-12.224 0c-3.376 1.948-3.374 5.108 0 7.056" class="cls-89" transform="translate(-146.077 527.089)"/>
            <path id="path848" d="M161.038-514.953s-.158 7.95 4 9.683c3.347-.668-.392-9.23-.392-9.23l-3.6-.453" class="cls-44" transform="translate(-86.452 581.182)"/>
            <path id="path850" d="M220.391-438.065l2.8-1.57a3.569 3.569 0 0 1-1.347 1.4 13.405 13.405 0 0 1-1.455.168" class="cls-90" transform="translate(-96.482 568.454)"/>
            <g id="g852" transform="translate(80.404 154.416)">
                <g id="g854" class="cls-91">
                    <path id="path866" d="M168.05-408.475l-.01-.006.63-.353-.62.359" class="cls-92" transform="translate(-168.04 408.834)"/>
                </g>
            </g>
            <path id="path868" d="M175.073-409.415a1868.593 1868.593 0 0 1-7.022-3.19l.62-.359 36.25-20.313-.677 5 .082 1.978-29.254 16.888" class="cls-90" transform="translate(-87.638 567.38)"/>
            <path id="path870" d="M181.956-405.538c-1.422-.639-3.342-1.5-5.455-2.459l29.254-16.888.229 5.475-24.029 13.872" class="cls-40" transform="translate(-89.065 565.962)"/>
            <path id="path872" d="M203.159-343.911h-.1l-.287-.013a4.76 4.76 0 0 1-.4-.041c-.1-.012-.2-.023-.3-.043a7.033 7.033 0 0 1-.451-.089c-.1-.026-.205-.045-.315-.073-.162-.043-.332-.1-.5-.152a10.376 10.376 0 0 1-.318-.1 10.375 10.375 0 0 1-.586-.229l-.288-.114a14.93 14.93 0 0 1-.925-.449c-5.272-2.782-6.394-3.514-7.419-4.1a1.721 1.721 0 0 1-.414-.327l-.074-.082a1.26 1.26 0 0 1-.217-.391l-.006-.022a1.852 1.852 0 0 1-.071-.465v-.1a12.5 12.5 0 0 1 .151-1.542.688.688 0 0 1 .271-.418c-.26-.2-5.359-50.65-5.359-50.65l-2.48-1.112 24.022-13.877.019.457c4.443 4.028 8.281 8.549 9.32 12.8a72.894 72.894 0 0 1 1.516 11.457v3.683l.206-.119c.049 1.026.09 2.058.123 3.085l-.329.191v4.012l.429-.247c.018 1.066.03 2.116.038 3.135l-.467.269v4.012l.469-.27c-.006 1.132-.017 2.2-.03 3.173l-.439.254v4.013l.358-.206c-.034 1.278-.062 2.012-.062 2.012s-.048.085-.117.2c1.4 1.078 6.414 4.984 7.63 6.743a1.992 1.992 0 0 1 .257.534 1.485 1.485 0 0 1-.746 1.777l-.268.135-.142.065-.256.084-.227.062-.26.048c-.1.015-.194.031-.295.039l-.271.018h-.35l-.287-.011a7.336 7.336 0 0 1-.7-.084 6.432 6.432 0 0 1-.451-.091c-.1-.023-.205-.045-.314-.073-.163-.041-.333-.1-.5-.15l-.318-.1c-.192-.066-.388-.147-.587-.227l-.287-.119q-.452-.194-.924-.444c-5.273-2.782-6.4-3.517-7.42-4.1a1.725 1.725 0 0 1-.414-.329l-.074-.082a1.254 1.254 0 0 1-.217-.39l-.006-.023a1.884 1.884 0 0 1-.072-.463v-.1a5.7 5.7 0 0 1 .04-.668c-.137-.057-.23-.1-.23-.1l-4.439-39.32s-2.876 8.668-7.33 8.668a3.674 3.674 0 0 1-1.394-.283c3.35 4.146-1.071.085-.464 4.474 1.635 11.82 1.666 37.536 1.666 37.536s-.07.075-.176.177c1.716 1.326 6.189 4.861 7.327 6.507a1.976 1.976 0 0 1 .258.536 1.482 1.482 0 0 1-.746 1.775l-.268.134-.142.068-.256.082-.227.062-.26.049c-.1.017-.194.03-.295.041l-.27.014c-.084 0-.168.006-.255.006" class="cls-93" transform="translate(-90.175 564.849)"/>
            <path id="path874" d="M225.041-384.881v-3.683c.081 1.172.148 2.366.206 3.564l-.206.119" class="cls-94" transform="translate(-97.268 559.824)"/>
            <path id="path876" d="M225.041-376.36v-4.012l.329-.191c.044 1.333.076 2.657.1 3.956l-.429.247" class="cls-94" transform="translate(-97.268 558.472)"/>
            <path id="path878" d="M225.041-367.75v-4.012l.466-.269c.009 1.4.009 2.749 0 4.011l-.469.27" class="cls-94" transform="translate(-97.268 557.031)"/>
            <path id="path880" d="M225.041-359.119v-4.013l.439-.254a336.351 336.351 0 0 1-.081 4.061l-.358.206" class="cls-94" transform="translate(-97.268 555.57)"/>
            <path id="path882" d="M222.3-425.939s-6.327.513-7.664 5.725c-1.061 4.479-2.862 1.771-2.493 2.6s3.556 7.095 6.6 4.325 7.528-5.636 5.795-11.5a4 4 0 0 0-2.24-1.152" class="cls-95" transform="translate(-95.08 566.14)"/>
            <path id="path884" d="M201.919-412.831s-6.327.513-7.664 5.725c-1.061 4.479-1.107 4.664-.738 5.495s1.8 4.2 4.848 1.431 9.243-3.6 7.511-9.465c-1.225-1.107-3.957-3.186-3.957-3.186" class="cls-44" transform="translate(-91.905 563.925)"/>
            <g id="g886" transform="translate(95.183 75.912)">
                <g id="g888" class="cls-96">
                    <path id="path900" d="M189.706-503.23s-.114-1.122-3.151 5.615 4.256 28.262 5.987 30.624 23.428 9.009 28.2 1.643c-2.977-1.53-.1-3.73-.687-7.173-8.862 3.1-21.633-2.239-24.342-4.486-4.516-3.744 2.175-16.9-6-26.223" class="cls-97" transform="translate(-185.824 503.3)"/>
                </g>
            </g>
            <path id="path902" d="M229.793-371.739s7.4 4.96 8.819 7.012-1.66 4.246-6.932 1.463-6.394-3.515-7.42-4.1-.952-3.429 0-5.139c.746-1.331 5.529.763 5.529.763" class="cls-23" transform="translate(-97.011 557.185)"/>
            <path id="path904" d="M224.25-367.572c1.026.586 2.148 1.317 7.42 4.1 3.962 2.089 6.681 1.369 7.19.012.593 1.859-2.378 3.469-7.19.929-5.272-2.78-6.394-3.515-7.42-4.1-.783-.45-.852-1.04-.755-1.969a1.37 1.37 0 0 0 .755 1.026" class="cls-43" transform="translate(-97.001 556.45)"/>
            <g id="g906" transform="translate(77.189 122.124)">
                <g id="g908" class="cls-98">
                    <path id="path920" d="M164.17-447.692s.243 14.89 13.4 18.127 30.356 8.276 30.356 8.276l6.578 37.68s2.237 2.228 3.994 1.5a2.14 2.14 0 0 0 1.269-2.266s.912-27.879-1.522-39.561c-1.8-8.638-32.341-21.657-32.341-21.657l-21.73-2.1" class="cls-99" transform="translate(-164.17 447.692)"/>
                </g>
            </g>
            <path id="path922" d="M216.442-428.525c-7.044-9.936-23.693-19.538-23.693-19.538l-28.579.308s.243 14.89 13.4 18.127c11.133 2.74 24.911 9.63 28.233 11.17.111-6.118 4.768-12.715 10.643-10.067" class="cls-44" transform="translate(-86.982 569.879)"/>
            <path id="path924" d="M206.372-356.252s6.589 4.981 8 7.031-1.659 4.246-6.931 1.463-6.394-3.514-7.42-4.1-1.027-3.7.085-5.683c.747-1.331 6.261 1.288 6.261 1.288" class="cls-23" transform="translate(-92.912 554.646)"/>
            <path id="path926" d="M200.019-351.968c1.026.586 2.148 1.317 7.42 4.1 3.962 2.089 6.681 1.369 7.19.013.593 1.858-2.378 3.468-7.19.927-5.272-2.78-6.394-3.514-7.42-4.1-.783-.45-.852-1.04-.753-1.969a1.367 1.367 0 0 0 .753 1.026" class="cls-43" transform="translate(-92.906 553.814)"/>
            <g id="g928" transform="translate(64.13 130.918)">
                <g id="g930" class="cls-100">
                    <path id="path942" d="M148.491-437.11s-1.27 14.839 11.487 19.395 28.53 10.341 28.53 10.341L191.6-370a4.366 4.366 0 0 0 3.648 1.709c2.625 0 2.536-1.342 2.536-1.342s2.783-27.028 1.147-38.847-18.538-25.72-18.538-25.72l-31.9-2.911" class="cls-101" transform="translate(-148.456 437.11)"/>
                </g>
            </g>
            <path id="path944" d="M198.3-413.748c-4.845-10.318-17.9-20.451-17.9-20.451l-31.9-2.911s-1.27 14.839 11.487 19.395c11.212 4 24.1 11.956 26.73 13.527 1.713-5.653 4.319-11.254 11.589-9.56" class="cls-45" transform="translate(-84.326 568.028)"/>
            <path id="path946" d="M191.25-456.926s1.418-44.484-12.152-49.68-26 7.17-31.306 19.146-3.906 32.825 0 40.567c18.615 12.812 43.987-3.88 43.458-10.032" class="cls-102" transform="translate(-83.627 579.978)"/>
            <path id="path948" d="M147.792-487.461c5.305-11.975 17.736-24.341 31.306-19.145a7.91 7.91 0 0 1 1.286.64c-9.993 1.27-18.49 10.864-22.635 20.224-5.3 11.975-3.906 32.824 0 40.566a26.273 26.273 0 0 0 5.746 2.984 27.066 27.066 0 0 1-15.7-4.7c-3.906-7.742-5.3-28.59 0-40.567" class="cls-103" transform="translate(-83.627 579.978)"/>
            <g id="g950" transform="translate(75.831 53.039)">
                <g id="g952" class="cls-104">
                    <path id="path964" d="M186-530.322s3.386 5.423.351 17.19c-2.466 9.535-2.831 14.809-6.81 15.212s-15.9-2.506-14.6-12.431c-1.186-.255-3.611-4.8-1.7-8.407s3.256.336 3.256.336-.076-7.868 5.485-10.737S186-530.322 186-530.322" class="cls-105" transform="translate(-162.537 530.825)"/>
                </g>
            </g>
            <path id="path966" d="M172.83-521.872c.02-.457 4.245 5.572 11.034 3.624a4.181 4.181 0 0 1-2.874-2.35 6 6 0 0 0 6.176 2.007 8.952 8.952 0 0 1-2.468-1.429 6.722 6.722 0 0 0 5.066.376c-1.562-.674-1.329-1.705-1.329-1.705s1.382 1.383 4.069-.96c-1.094-.141-.985-5.157-4.933-8.769s-7.153-4.453-12.441-3.561a4.882 4.882 0 0 1 4.533-1.792c-2.112-1.179-6.576.935-7.9 2.888-4.106-1.576-11.844 1.157-9.29 16.118.041-.377.394-2.81 1.844-3.271s2.673 2.392 2.341 3.113a32.309 32.309 0 0 0-.485 4.991l1.874.982s-.582-3.71.755-4.828 3.768.267 4.024-5.434" class="cls-44" transform="translate(-86.61 584.869)"/>
            <path id="path968" d="M222.747-478.483l-8.041 10.79-25.978-6.054 1.493 33.574 23.626-.286 7.782-9.469 1.118-28.555" class="cls-8" transform="translate(-91.132 575.019)"/>
            <path id="path970" d="M227.855-483.945l-8.041 15.329-.859 27.234 7.782-9.469 1.118-33.094" class="cls-7" transform="translate(-96.24 575.942)"/>
            <g id="g972" transform="translate(127.786 108.853)">
                <g id="g974" class="cls-106">
                    <path id="path986" d="M228.4-463.662s-1.786 3.653-2.892 4.073-.249 6.5 3.143 4.552 1.794-8.431-.252-8.625" class="cls-107" transform="translate(-225.057 463.662)"/>
                </g>
            </g>
            <g id="g988" transform="translate(59.446 84.823)">
                <g id="g990" class="cls-108">
                    <path id="path1002" d="M192.219-457.939c-1.888-.132-4.034.327-7.354.388s-3.2-1.813-3.325-4.491c-1.048.778-1.685 2.868-3.379 4.1s-2.493 0-2.493 0l-.358.268c-12.019-2.122-20.508-5.1-22.414-7.961-1.951-2.928 3.406-11.776 3.868-19.766 0 0 1.069-10.019-5.362-6.377s-8.582 29.318-8.582 32.247 21.558 6.992 32.831 8.022a15.513 15.513 0 0 0 6.494 2.236c9.712-.188 11.963-8.532 10.074-8.663" class="cls-109" transform="translate(-142.82 492.578)"/>
                </g>
            </g>
            <path id="path1004" d="M158.273-486.291s-.573-9.144-7-5.5c-3.3 1.868-6.7 11.717-9.233 18.109a28.478 28.478 0 0 0 12.06 5.122 29.966 29.966 0 0 0 4.171-17.731" class="cls-110" transform="translate(-83.241 577.413)"/>
            <path id="path1006" d="M189.939-528.644s-.432 6.547-27.907 9.247a7.991 7.991 0 0 1-1.637-4.174c-.51-3.518.151-7.782 1.028-9.469 1.3-2.494.983-5.911-.568-7.48s-1.22-4.986 4.154-2.585 19.184.577 24.929 14.462" class="cls-110" transform="translate(-86.285 586.08)"/>
            <path id="path1010" d="M162.723-544.4a3.927 3.927 0 0 1-3.927 3.927 3.927 3.927 0 0 1-3.927-3.927 3.927 3.927 0 0 1 3.927-3.927 3.926 3.926 0 0 1 3.927 3.927" class="cls-8" transform="translate(-85.41 586.821)"/>
        </g>
    </g>
</svg>
