<svg xmlns="http://www.w3.org/2000/svg" width="30" height="30" viewBox="0 0 30 30">
    <defs>
        <style>
            .cls-1{fill:#dcdcdc}
        </style>
    </defs>
    <g id="instagram-logo">
        <g id="Group_46" data-name="Group 46">
            <g id="Group_45" data-name="Group 45">
                <path id="Path_276" d="M22.859 25.862a3 3 0 1 0-3-3 3.008 3.008 0 0 0 3 3z" class="cls-1" data-name="Path 276" transform="translate(-7.859 -7.859)"/>
                <path id="Path_277" d="M33.783 16.852V13.96h-.376l-2.516.008.01 2.892z" class="cls-1" data-name="Path 277" transform="translate(-12.226 -5.525)"/>
                <path id="Path_278" d="M15 0a15 15 0 1 0 15 15A15.017 15.017 0 0 0 15 0zm8.531 13.25v6.985a3.3 3.3 0 0 1-3.3 3.3H9.766a3.3 3.3 0 0 1-3.3-3.3V9.767a3.3 3.3 0 0 1 3.3-3.3h10.467a3.3 3.3 0 0 1 3.3 3.3z" class="cls-1" data-name="Path 278"/>
                <path id="Path_279" d="M24.992 23.679A4.666 4.666 0 1 1 16 21.929h-2.543v6.985a1.635 1.635 0 0 0 1.635 1.634h10.467a1.635 1.635 0 0 0 1.635-1.634v-6.985h-2.548a4.6 4.6 0 0 1 .346 1.75z" class="cls-1" data-name="Path 279" transform="translate(-5.326 -8.679)"/>
            </g>
        </g>
    </g>
</svg>
