<svg xmlns="http://www.w3.org/2000/svg" xmlns:xlink="http://www.w3.org/1999/xlink" width="477.949" height="323.377" viewBox="0 0 477.949 323.377">
    <defs>
        <style>
            .cls-1,.cls-3,.cls-6{fill:#5c9bff}.cls-2{fill:url(#linear-gradient)}.cls-3{opacity:.8}.cls-4{fill:url(#linear-gradient-2)}.cls-5{fill:url(#linear-gradient-3)}.cls-6{opacity:.5}.cls-27,.cls-7{fill:#fff}.cls-7{opacity:.4}.cls-8{fill:#0059f0}.cls-9{fill:#e7afa7}.cls-10{fill:#0051c7}.cls-11{fill:#1b3874}.cls-12{fill:#006cff}.cls-13{fill:#ffcb4c}.cls-14{fill:#003aa7}.cls-15{fill:#7db0ff}.cls-16{fill:#0070ff}.cls-17{fill:#001868}.cls-18{fill:#006efd}.cls-19{fill:#66a0ec}.cls-20{fill:#c8987e}.cls-21{fill:#ddd}.cls-22{fill:#f5f5f5}.cls-23{fill:#006dff}.cls-24{fill:#0c277b}.cls-25{fill:#0037a2}.cls-26{fill:#1a55b5}.cls-28{fill:#e8e8e8}.cls-29{fill:#6dacfa}.cls-30{fill:#a2dfff}.cls-31{fill:#d1d5d8}.cls-32{fill:#45a0ff}.cls-33{fill:#f6c157}.cls-34{fill:#389dff}.cls-35,.cls-36,.cls-38{fill:none;stroke-linecap:round;stroke-linejoin:round}.cls-35{stroke:#fff;stroke-width:.288px}.cls-36,.cls-38{stroke:#1a55b5}.cls-36{stroke-width:.353px}.cls-37{fill:#7aa9fe}.cls-38{stroke-width:.499px}.cls-39{filter:url(#Path_94)}.cls-40{filter:url(#Path_93)}.cls-41{filter:url(#Path_92)}.cls-42{filter:url(#Rectangle_11)}
        </style>
        <linearGradient id="linear-gradient" x1=".246" x2=".754" y1="-5.765" y2="6.179" gradientUnits="objectBoundingBox">
            <stop offset="0" stop-color="#d8e7fd"/>
            <stop offset="1" stop-color="#539dff"/>
        </linearGradient>
        <linearGradient id="linear-gradient-2" x1=".103" x2=".897" y1="-.157" y2="1.157" xlink:href="#linear-gradient"/>
        <linearGradient id="linear-gradient-3" x1=".113" x2=".887" y1="-.205" y2="1.205" gradientUnits="objectBoundingBox">
            <stop offset=".226" stop-color="#e5f2ff"/>
            <stop offset="1" stop-color="#b5d7fd"/>
        </linearGradient>
        <filter id="Rectangle_11" width="95.586" height="95.586" x="74.819" y="52.481" filterUnits="userSpaceOnUse">
            <feOffset dx="1.714" dy="1.714"/>
            <feGaussianBlur result="blur"/>
            <feFlood flood-color="#81acea" flood-opacity=".4"/>
            <feComposite in2="blur" operator="in"/>
            <feComposite in="SourceGraphic"/>
        </filter>
        <filter id="Path_92" width="90.365" height="18.634" x="311.267" y="46.649" filterUnits="userSpaceOnUse">
            <feOffset dx=".857" dy="1.714"/>
            <feGaussianBlur result="blur-2"/>
            <feFlood flood-color="#81acea" flood-opacity=".4"/>
            <feComposite in2="blur-2" operator="in"/>
            <feComposite in="SourceGraphic"/>
        </filter>
        <filter id="Path_93" width="90.365" height="18.634" x="311.267" y="101.921" filterUnits="userSpaceOnUse">
            <feOffset dx=".857" dy="1.714"/>
            <feGaussianBlur result="blur-3"/>
            <feFlood flood-color="#81acea" flood-opacity=".4"/>
            <feComposite in2="blur-3" operator="in"/>
            <feComposite in="SourceGraphic"/>
        </filter>
        <filter id="Path_94" width="90.364" height="18.635" x="288.112" y="74.284" filterUnits="userSpaceOnUse">
            <feOffset dx=".857" dy="1.714"/>
            <feGaussianBlur result="blur-4"/>
            <feFlood flood-color="#81acea" flood-opacity=".4"/>
            <feComposite in2="blur-4" operator="in"/>
            <feComposite in="SourceGraphic"/>
        </filter>
    </defs>
    <g id="OBJECTS" transform="translate(-82.85 -142.876)">
        <g id="Group_2" data-name="Group 2" transform="translate(82.96 142.876)">
            <path id="Rectangle_2" d="M0 0h393.567v6.547H0z" class="cls-1" data-name="Rectangle 2" transform="translate(42.136 240.574)"/>
            <path id="Path_3" d="M67.419 331.725a20.356 20.356 0 0 0 20.356 20.356H524.9a20.356 20.356 0 0 0 20.356-20.356z" class="cls-2" data-name="Path 3" transform="translate(-67.419 -84.604)"/>
            <path id="Path_4" d="M302.45 338.134h-79.466a18.93 18.93 0 0 1-14.2-6.409h107.864a18.93 18.93 0 0 1-14.198 6.409z" class="cls-3" data-name="Path 4" transform="translate(-23.798 -84.604)"/>
            <rect id="Rectangle_3" width="400.894" height="242.089" class="cls-4" data-name="Rectangle 3" rx="4.594" transform="translate(38.472)"/>
            <path id="Rectangle_4" d="M0 0h378.868v207.955H0z" class="cls-5" data-name="Rectangle 4" transform="translate(49.485 21.999)"/>
            <path id="Rectangle_5" d="M0 0h2.093v207.904H0z" class="cls-6" data-name="Rectangle 5" transform="translate(49.485 21.999)"/>
            <path id="Path_5" d="M246.9 152.328a3.763 3.763 0 1 1-3.762-3.763 3.763 3.763 0 0 1 3.762 3.763z" class="cls-7" data-name="Path 5" transform="translate(-14.359 -141.121)"/>
        </g>
        <g id="Group_4" data-name="Group 4" transform="translate(117.923 308.347)">
            <path id="Path_6" d="M153.716 296.233c-3.732-4.257 1.034-8.261 1.568-9.074.022-.03.048-.063.069-.093 2.717-3.732 4.037-9.56.551-13.3a14.141 14.141 0 0 0-14.956-3.633c-6.114 2.23-8.753 7.931-9.566 14a15.207 15.207 0 0 0 1.438 8.145z" class="cls-8" data-name="Path 6" transform="translate(-82.681 -269.328)"/>
            <path id="Path_7" d="M150.5 276.309c.394 2.743 1 3.867.627 5.955l-.328.874c-.021.037-.041.073-.064.11l.03-.017-.995 2.651a6.486 6.486 0 0 1-12.145-4.558l1.119-2.982c1.918-2.581 8.7 1.358 11.756-2.033z" class="cls-9" data-name="Path 7" transform="translate(-80.848 -267.174)"/>
            <path id="Path_8" d="M140.61 279.7a2.443 2.443 0 1 1-1.429-3.146 2.443 2.443 0 0 1 1.429 3.146z" class="cls-9" data-name="Path 8" transform="translate(-81.257 -267.146)"/>
            <path id="Path_9" d="M139.65 283.658c-.721.692-9.215 11.09-9.215 11.09l12.35 1.867.718-9.207z" class="cls-9" data-name="Path 9" transform="translate(-82.937 -264.906)"/>
            <g id="Group_3" data-name="Group 3" transform="translate(56.908 29.166)">
                <path id="Path_10" d="M154.2 312.623a3.909 3.909 0 1 1-5.527-.008 3.908 3.908 0 0 1 5.527.008z" class="cls-9" data-name="Path 10" transform="translate(-134.573 -285.489)"/>
                <path id="Path_11" d="M158.219 320.267l-7.054 3.37-12.695-24.308a5.029 5.029 0 0 1 2.018-7.329c2.762-1.319 8.312.928 9.227 3.848z" class="cls-9" data-name="Path 11" transform="translate(-137.626 -291.617)"/>
            </g>
            <path id="Path_12" d="M194.044 334.416h-52.159l-2.323-13.49 45.851 3.139a10.522 10.522 0 0 1 8.631 10.351z" class="cls-10" data-name="Path 12" transform="translate(-80.121 -253.407)"/>
            <path id="Path_13" d="M184.5 371.618h3.426l-2.471-11.506h-5.013z" class="cls-9" data-name="Path 13" transform="translate(-67.508 -241.315)"/>
            <path id="Path_14" d="M163.676 370.624h3.424l2.617-10.512h-5.013z" class="cls-9" data-name="Path 14" transform="translate(-72.68 -241.315)"/>
            <path id="Path_15" d="M168.721 367.287l-2.743 1.2-2.548-1.2-2.286 7.463h21.2c0-3.731-7.969-3.731-7.969-3.731z" class="cls-11" data-name="Path 15" transform="translate(-73.461 -239.102)"/>
            <path id="Path_16" d="M188.347 367.287l-2.743 1.2-2.548-1.2-2.286 7.463h21.2c0-3.731-7.969-3.731-7.969-3.731z" class="cls-11" data-name="Path 16" transform="translate(-67.405 -239.102)"/>
            <path id="Path_17" d="M190.059 372.644h-5.009l-16.407-41.409h16.428z" class="cls-10" data-name="Path 17" transform="translate(-71.147 -250.226)"/>
            <path id="Path_18" d="M188.958 337.4l-16.036 3.334-46.093-23.032 53.5 9.347a10.521 10.521 0 0 1 8.629 10.351z" class="cls-12" data-name="Path 18" transform="translate(-84.05 -254.4)"/>
            <path id="Path_19" d="M128.328 316.287c-.37 2.7-4.032 6.191-3.906 14.278.076 4.852 3.269 7.861 6.9 9.492 3.036 1.363 7.167 1.119 9.729 1.119h32.615l-19.143-18.818z" class="cls-12" data-name="Path 19" transform="translate(-84.793 -254.838)"/>
            <path id="Path_20" d="M169.567 372.174h-5.009l-2.5-36.081 16.038-3.334z" class="cls-12" data-name="Path 20" transform="translate(-73.181 -249.756)"/>
            <path id="Path_21" d="M175.038 322.485l-23.8-3.213-1.861-7.787 25.656 7.178z" class="cls-9" data-name="Path 21" transform="translate(-77.091 -256.32)"/>
            <path id="Path_22" d="M127.542 326.573l1.49-6.853-4.515-26.543a4.507 4.507 0 0 1 5.294-4.135l18.06 1.718a4.506 4.506 0 0 1 3.519 5.722l-4.624 32.307z" class="cls-13" data-name="Path 22" transform="translate(-84.763 -263.267)"/>
            <path id="Path_23" d="M154.719 308.159l-9.2 3.94-7.358-12.054a6.463 6.463 0 0 1 3.5-9.371 6.463 6.463 0 0 1 8.131 3.831z" class="cls-13" data-name="Path 23" transform="translate(-80.826 -262.849)"/>
            <path id="Path_24" d="M182.223 324l-37.284-1.93v-1.141l37.284 1.93z" class="cls-14" data-name="Path 24" transform="translate(-78.462 -253.407)"/>
            <path id="Path_25" d="M180.237 327.13l-24.877-1.048 6.756-18.059h24.907z" class="cls-14" data-name="Path 25" transform="translate(-75.246 -257.388)"/>
            <path id="Path_26" d="M147.265 323.586l-24.865-3.174-.79-7.825 25.656 7.178z" class="cls-9" data-name="Path 26" transform="translate(-85.66 -255.98)"/>
            <path id="Path_27" d="M127.408 315.959a3.909 3.909 0 1 1-4.414-3.328 3.91 3.91 0 0 1 4.414 3.328z" class="cls-9" data-name="Path 27" transform="translate(-86.272 -255.978)"/>
            <path id="Path_28" d="M141.215 318.328l3.222-.822a8.521 8.521 0 0 1 7.488 1.65l4.208 3.426-14.918-.471z" class="cls-9" data-name="Path 28" transform="translate(-79.611 -254.544)"/>
            <path id="Rectangle_6" d="M0 0h50.243v49.311H0z" class="cls-15" data-name="Rectangle 6" transform="translate(19.61 86.338)"/>
            <path id="Rectangle_7" d="M0 0h19.61v49.311H0z" class="cls-16" data-name="Rectangle 7" transform="translate(0 86.338)"/>
            <path id="Path_29" d="M139.1 280.115l-6.647.588v8.247c5.667 3.956 10.309-2.034 10.309-2.034-4.59-3.312-4.013-5.853-3.676-6.765" class="cls-8" data-name="Path 29" transform="translate(-82.314 -266)"/>
            <path id="Path_30" d="M127.263 324.411l-7.6-1.818 5.55-27.68c.173-3.056 1.854-4.355 4.855-3.75 3 .6 6.087 5.735 5.064 8.62z" class="cls-9" data-name="Path 30" transform="translate(-86.262 -262.635)"/>
            <path id="Path_31" d="M131.447 311.063L121.915 308l2.359-13.924a6.463 6.463 0 0 1 8.79-4.775 6.463 6.463 0 0 1 3.621 8.228z" class="cls-13" data-name="Path 31" transform="translate(-85.566 -263.315)"/>
            <path id="Path_32" d="M130.435 289.183l12.442 12.533 1.427-11.285z" class="cls-9" data-name="Path 32" transform="translate(-82.937 -263.202)"/>
        </g>
        <g id="Group_6" data-name="Group 6" transform="translate(353.659 287.134)">
            <circle id="Ellipse_1" cx="12.195" cy="12.195" r="12.195" class="cls-17" data-name="Ellipse 1" transform="rotate(-45 58.878 -83.263)"/>
            <path id="Path_33" d="M366.392 365.06h-14.587a9.255 9.255 0 0 0-9.245 9.244 1.133 1.133 0 0 0 2.266 0 6.986 6.986 0 0 1 6.979-6.977h.79a9.216 9.216 0 0 0-3.2 6.977 1.133 1.133 0 0 0 2.266 0 6.993 6.993 0 0 1 7.013-6.977h.882a6.986 6.986 0 0 1 6.979 6.977 1.133 1.133 0 0 0 2.266 0 9.2 9.2 0 0 0-3.206-6.977h.8a6.985 6.985 0 0 1 6.977 6.977 1.133 1.133 0 1 0 2.266 0 9.254 9.254 0 0 0-9.246-9.244z" class="cls-18" data-name="Path 33" transform="translate(-253.219 -218.576)"/>
            <path id="Rectangle_8" d="M0 0h3.987v40.569H0z" class="cls-19" data-name="Rectangle 8" transform="translate(103.885 109.119)"/>
            <path id="Path_34" d="M377.544 339.023h-35.157a2.638 2.638 0 0 1-2.638-2.637 2.638 2.638 0 0 1 2.638-2.637h35.157a2.637 2.637 0 0 1 2.637 2.637 2.637 2.637 0 0 1-2.637 2.637z" class="cls-13" data-name="Path 34" transform="translate(-254.087 -228.238)"/>
            <path id="Path_35" d="M326.044 391.707a1.033 1.033 0 0 0 1-1.272l-18.639-78.3h-4.1l20.733 78.806a1.032 1.032 0 0 0 1.006.766z" class="cls-11" data-name="Path 35" transform="translate(-265.021 -234.908)"/>
            <path id="Path_36" d="M346.036 286.675l11.672.939-5.655-13.764-8.623 1.912z" class="cls-20" data-name="Path 36" transform="translate(-252.951 -246.721)"/>
            <path id="Path_37" d="M349.016 269.143a1.991 1.991 0 1 0 1.61-2.31 1.991 1.991 0 0 0-1.61 2.31z" class="cls-20" data-name="Path 37" transform="translate(-251.237 -248.895)"/>
            <path id="Path_38" d="M342.233 263.4a6.212 6.212 0 0 0-3.47 2.926 6.043 6.043 0 0 0-.622 3.9l.208 1.167c.018.051.034.1.055.153l-.033-.027.582 3.258c.8 4.492 4.829 7.761 9.1 7.069a8.056 8.056 0 0 0 6.392-9.537l-.713-3.992v-.008s-1.441-7.809-11.499-4.909z" class="cls-20" data-name="Path 38" transform="translate(-254.61 -250.144)"/>
            <path id="Path_39" d="M342.46 263.551a14.161 14.161 0 0 1 3.1-.247 6.723 6.723 0 0 1 2.266.407c2.352.924 1.96 4.852 1.971 6.824 0 .483.009 1.055.41 1.323a1 1 0 0 0 1.316-.461 4.713 4.713 0 0 0 .393-1.506 1.656 1.656 0 0 1 .81-1.267l-3.134-7.845c-.024-.058-5.051 1.621-5.438 1.746a6.269 6.269 0 0 0-1.694 1.026z" class="cls-17" data-name="Path 39" transform="translate(-253.25 -250.754)"/>
            <g id="Group_5" data-name="Group 5" transform="translate(74.323 38.424)">
                <path id="Path_40" d="M331.924 304.769a3.908 3.908 0 1 0 5.489-.649 3.908 3.908 0 0 0-5.489.649z" class="cls-20" data-name="Path 40" transform="translate(-331.084 -276.063)"/>
                <path id="Path_41" d="M331.124 312.806l7.4 2.529 9.8-25.614a5.027 5.027 0 0 0-2.851-7.041c-2.9-.991-8.15 1.883-8.719 4.89z" class="cls-20" data-name="Path 41" transform="translate(-331.072 -282.481)"/>
            </g>
            <path id="Path_42" d="M313.5 332.777h47.175l-4.378-13.2-34.165 2.851a10.523 10.523 0 0 0-8.632 10.349z" class="cls-21" data-name="Path 42" transform="translate(-262.186 -232.611)"/>
            <path id="Path_43" d="M302.827 371.57H299.4l5.462-11.506h5.013z" class="cls-20" data-name="Path 43" transform="translate(-266.537 -220.118)"/>
            <path id="Path_44" d="M332.448 370.577h-3.426l-2.617-10.512h5.013z" class="cls-20" data-name="Path 44" transform="translate(-258.204 -220.118)"/>
            <path id="Path_45" d="M330.977 367.24l2.743 1.2 2.548-1.2 2.286 7.463h-21.2c0-3.732 7.969-3.732 7.969-3.732z" class="cls-11" data-name="Path 45" transform="translate(-260.996 -217.904)"/>
            <path id="Path_46" d="M302.209 367.24l2.743 1.2 2.548-1.2 2.286 7.463h-21.2c0-3.732 7.969-3.732 7.969-3.732z" class="cls-11" data-name="Path 46" transform="translate(-269.873 -217.904)"/>
            <path id="Path_47" d="M299.025 378.959l8 1.994 28.37-50.381-16.69-3.848z" class="cls-21" data-name="Path 47" transform="translate(-266.653 -230.406)"/>
            <path id="Path_48" d="M320.391 334.772l16.038 3.334 42.98-18.533h-25.236l-25.151 4.846a10.521 10.521 0 0 0-8.631 10.353z" class="cls-22" data-name="Path 48" transform="translate(-260.06 -232.612)"/>
            <path id="Path_49" d="M375.627 319.573a21.662 21.662 0 0 1 1.278 7.922c-.076 4.851-3.269 7.861-6.9 9.491-3.037 1.365-7.168 1.12-9.73 1.12h-27.628l17.744-18.531z" class="cls-22" data-name="Path 49" transform="translate(-256.278 -232.612)"/>
            <path id="Path_50" d="M328.915 377.581l8 1-.486-44.056-16.038-3.334z" class="cls-22" data-name="Path 50" transform="translate(-260.06 -229.028)"/>
            <path id="Path_51" d="M315.808 313.294l23.486-1.915 2.171-9.084-25.656 7.178z" class="cls-20" data-name="Path 51" transform="translate(-261.474 -237.944)"/>
            <path id="Path_52" d="M373.908 331.947l-7.55-52.475-26.832 2.5-1.307 7.412c-.19 13.223 13.892 35.984 10.454 42.57z" class="cls-13" data-name="Path 52" transform="translate(-254.56 -244.986)"/>
            <path id="Path_53" d="M332.188 304.906l10.6 2.849 5.66-17.4a6.462 6.462 0 0 0-4.56-8.9 6.464 6.464 0 0 0-7.633 4.747z" class="cls-13" data-name="Path 53" transform="translate(-256.42 -244.421)"/>
            <path id="Path_54" d="M345.1 314.4l24.268-2.168 1.388-8.831-25.656 7.173z" class="cls-20" data-name="Path 54" transform="translate(-252.434 -237.604)"/>
            <path id="Path_55" d="M360.316 307.2a4.419 4.419 0 1 0 4.99-3.761 4.418 4.418 0 0 0-4.99 3.761z" class="cls-20" data-name="Path 55" transform="translate(-247.754 -237.603)"/>
            <path id="Path_56" d="M348.621 309.137l-3.222-.822a8.521 8.521 0 0 0-7.488 1.65l-4.207 3.426 14.916-.471z" class="cls-20" data-name="Path 56" transform="translate(-255.952 -236.167)"/>
            <path id="Path_57" d="M361.782 314.249l8.771-.25-3.711-28.207c-.059-3.061-2.684-4.342-5.705-3.85-3.02.492-6.3 5.5-5.382 8.423z" class="cls-20" data-name="Path 57" transform="translate(-249.196 -244.255)"/>
            <path id="Path_58" d="M359.232 307.2l10.832-1.931-2.464-19.713a6.463 6.463 0 0 0-8.131-5.824 6.462 6.462 0 0 0-4.61 7.717z" class="cls-13" data-name="Path 58" transform="translate(-249.478 -244.975)"/>
            <path id="Path_59" d="M404.462 313.74h-121.7a1.8 1.8 0 0 1-1.8-1.8 1.8 1.8 0 0 1 1.8-1.8h121.7a1.8 1.8 0 0 1 1.8 1.8 1.8 1.8 0 0 1-1.8 1.8z" class="cls-11" data-name="Path 59" transform="translate(-272.224 -235.521)"/>
            <path id="Path_60" d="M275.32 391.707a1.033 1.033 0 0 1-1-1.272l18.639-78.3h4.1l-20.732 78.806a1.034 1.034 0 0 1-1.007.766z" class="cls-11" data-name="Path 60" transform="translate(-274.286 -234.908)"/>
            <path id="Path_61" d="M390.227 391.707a1.033 1.033 0 0 0 1-1.272l-18.639-78.3h-4.1l20.733 78.806a1.032 1.032 0 0 0 1.006.766z" class="cls-11" data-name="Path 61" transform="translate(-245.217 -234.908)"/>
            <path id="Path_62" d="M339.5 391.707a1.033 1.033 0 0 1-1.005-1.272l18.639-78.3h4.1L340.5 390.938a1.035 1.035 0 0 1-1 .769z" class="cls-11" data-name="Path 62" transform="translate(-254.482 -234.908)"/>
            <path id="Path_63" d="M343.408 281.279l.219.705a6.8 6.8 0 0 0 6.507 4.823 6.8 6.8 0 0 0 6.773-6.157l.058-.6z" class="cls-20" data-name="Path 63" transform="translate(-252.958 -244.808)"/>
            <path id="Path_64" d="M334.725 313.677h-29.041l-8.972-18.059h29.041z" class="cls-23" data-name="Path 64" transform="translate(-267.367 -240.004)"/>
            <path id="Rectangle_9" d="M0 0h37.381v1.452H0z" class="cls-23" data-name="Rectangle 9" transform="translate(40.553 73.171)"/>
        </g>
        <g id="Group_7" data-name="Group 7" transform="translate(265.436 218.999)">
            <path id="Path_65" d="M264.87 256.233l6.691-8.19-22.461-19.82a4.936 4.936 0 0 0-7.373 1.124c-1.6 2.54-.221 7.935 3.049 10.967s20.094 15.919 20.094 15.919z" class="cls-22" data-name="Path 65" transform="translate(-196.316 -193.028)"/>
            <path id="Rectangle_10" d="M0 0h4.226v5.208H0z" class="cls-9" data-name="Rectangle 10" transform="translate(37.643 192.257)"/>
            <path id="Path_66" d="M208.831 353.179h4.226l1.948-5.208h-4.225z" class="cls-9" data-name="Path 66" transform="translate(-206.26 -155.714)"/>
            <path id="Path_67" d="M240.654 231.393l-11.415.918 3.581-13.461 6.544 1.03z" class="cls-9" data-name="Path 67" transform="translate(-199.962 -195.556)"/>
            <path id="Path_68" d="M225.36 278.117l-6.62-45.223a4.174 4.174 0 0 1 3.487-5.153l30.274-.768a4.174 4.174 0 0 1 4.733 4.04l-2.218 44.915z" class="cls-22" data-name="Path 68" transform="translate(-203.241 -193.062)"/>
            <path id="Path_69" d="M223.769 266.563l11.347 15.213 2.172 94.349h8.706l7.431-111.75z" class="cls-24" data-name="Path 69" transform="translate(-201.65 -181.509)"/>
            <path id="Path_70" d="M252.8 264.684l-2.7 14.664a7.084 7.084 0 0 1-6.968 5.8L215.21 376.03h-7.133l20.534-109.561z" class="cls-25" data-name="Path 70" transform="translate(-206.492 -181.414)"/>
            <path id="Path_71" d="M224.17 217.606a10.879 10.879 0 0 0 21.05-2.939c.234-3.028 2.058-5.734 2.141-8.8.094-3.481-2.976-5.275-6.2-4.716-1.742.3-3.373 1.061-5.1 1.433-1.493.322-3.033.349-4.539.6a8.338 8.338 0 0 0-4.564 2.323 11.146 11.146 0 0 0-3.134 5.626 11.426 11.426 0 0 0 .346 6.473z" class="cls-26" data-name="Path 71" transform="translate(-201.729 -201.049)"/>
            <path id="Path_72" d="M230.521 213.984a2.074 2.074 0 1 1-2.159-1.984 2.073 2.073 0 0 1 2.159 1.984z" class="cls-9" data-name="Path 72" transform="translate(-200.846 -197.671)"/>
            <path id="Path_73" d="M238.729 206.334a6.482 6.482 0 0 1 4.193 2.191 6.3 6.3 0 0 1 1.513 3.828l.052 1.235c-.007.056-.012.111-.021.168l.026-.035.145 3.447c.2 4.751-3.158 8.987-7.664 9.25a8.393 8.393 0 0 1-8.66-8.256l-.178-4.224v-.008s-.294-8.27 10.594-7.596z" class="cls-9" data-name="Path 73" transform="translate(-200.303 -199.43)"/>
            <path id="Path_74" d="M236.834 206.189a13.823 13.823 0 0 0-3.011.421 6.547 6.547 0 0 0-2.078.87c-2.049 1.381-.841 5.048-.433 6.934.1.459.215 1.008-.11 1.349a.977.977 0 0 1-1.354-.161 4.593 4.593 0 0 1-.695-1.354 1.623 1.623 0 0 0-1.042-1.036l1.327-8.156c.009-.059 5.166.476 5.561.513a6.112 6.112 0 0 1 1.835.62z" class="cls-26" data-name="Path 74" transform="translate(-200.311 -199.814)"/>
            <path id="Path_75" d="M242.148 251.575l-20.931 9.964-1.8-9.964 21.425-5.967z" class="cls-27" data-name="Path 75" transform="translate(-202.992 -187.3)"/>
            <path id="Path_76" d="M223.683 251.27a5.288 5.288 0 1 1-7.44.75 5.288 5.288 0 0 1 7.44-.75z" class="cls-27" data-name="Path 76" transform="translate(-204.341 -185.921)"/>
            <path id="Path_77" d="M266.4 243.372a5.288 5.288 0 1 1-7.441.75 5.287 5.287 0 0 1 7.441-.75z" class="cls-22" data-name="Path 77" transform="translate(-191.159 -188.358)"/>
            <path id="Path_78" d="M284.25 239.187l-18.5 15.372-5.865-8.745 22.881-13.342z" class="cls-22" data-name="Path 78" transform="translate(-190.506 -191.353)"/>
            <path id="Path_79" d="M225.484 263.582l-10.413-1.693 2.9-29.023a5.886 5.886 0 0 1 6.96-5.537c3.521.658 7.119 6.242 7.119 11.56s-6.566 24.693-6.566 24.693z" class="cls-27" data-name="Path 79" transform="translate(-204.335 -192.971)"/>
            <path id="Path_80" d="M253.877 266.479h-19.813l9.969-28.416h19.813z" class="cls-13" data-name="Path 80" transform="translate(-198.474 -189.628)"/>
            <path id="Path_81" d="M247.956 246.3a2.5 2.5 0 0 1-2.126 2.99l-5.688.735-3.045 1.945-1.3-4.97 1.275-.979a8.267 8.267 0 0 1 5.034-1.709h3.408a2.5 2.5 0 0 1 2.442 1.988z" class="cls-9" data-name="Path 81" transform="translate(-197.94 -187.698)"/>
            <path id="Path_82" d="M291.387 230.66h-7.679a8.267 8.267 0 0 0-5.034 1.709l-1.275.979.891 5.233 3.457-2.208 3.237 1.066a3.44 3.44 0 0 0 4.1-5.054h2.3a.863.863 0 0 0 0-1.726z" class="cls-9" data-name="Path 82" transform="translate(-185.102 -191.912)"/>
            <path id="Path_83" d="M214.443 350.148l-2.743 1.2-2.548-1.2-2.286 7.463h21.2c0-3.732-7.969-3.732-7.969-3.732z" class="cls-23" data-name="Path 83" transform="translate(-206.866 -155.043)"/>
            <path id="Path_84" d="M241.218 350.148l-2.744 1.2-2.546-1.2-2.287 7.463h21.2c0-3.732-7.969-3.732-7.969-3.732z" class="cls-23" data-name="Path 84" transform="translate(-198.605 -155.043)"/>
        </g>
        <g id="Group_8" data-name="Group 8" transform="translate(157.669 195.357)">
            <g class="cls-42" transform="translate(-74.82 -52.48)">
                <rect id="Rectangle_11-2" width="93.872" height="93.872" class="cls-27" data-name="Rectangle 11" rx="6.885" transform="translate(74.82 52.48)"/>
            </g>
            <path id="Path_85" d="M206.521 198.151h-73.733a2.469 2.469 0 0 1-2.469-2.469 2.47 2.47 0 0 1 2.469-2.469h73.732a2.469 2.469 0 0 1 2.469 2.469 2.469 2.469 0 0 1-2.468 2.469z" class="cls-28" data-name="Path 85" transform="translate(-122.719 -179.825)"/>
            <path id="Path_86" d="M206.521 204.958h-73.733a2.469 2.469 0 0 1-2.469-2.469 2.47 2.47 0 0 1 2.469-2.469h73.732a2.469 2.469 0 0 1 2.469 2.469 2.468 2.468 0 0 1-2.468 2.469z" class="cls-28" data-name="Path 86" transform="translate(-122.719 -177.725)"/>
            <path id="Path_87" d="M138.751 250.017h-8.432v-19.336a4.216 4.216 0 0 1 4.216-4.216 4.216 4.216 0 0 1 4.216 4.216z" class="cls-29" data-name="Path 87" transform="translate(-122.719 -169.565)"/>
            <path id="Path_88" d="M152.17 251.952h-8.432v-27.544a4.216 4.216 0 0 1 4.216-4.216 4.215 4.215 0 0 1 4.216 4.216z" class="cls-30" data-name="Path 88" transform="translate(-118.578 -171.5)"/>
            <path id="Path_89" d="M165.589 248.081h-8.432v-11.127a4.216 4.216 0 0 1 4.216-4.216 4.215 4.215 0 0 1 4.216 4.216z" class="cls-31" data-name="Path 89" transform="translate(-114.437 -167.629)"/>
            <path id="Path_90" d="M179.008 251.952h-8.432v-27.544a4.216 4.216 0 0 1 4.216-4.216 4.215 4.215 0 0 1 4.216 4.216z" class="cls-30" data-name="Path 90" transform="translate(-110.297 -171.5)"/>
            <path id="Path_91" d="M192.427 253.888H184v-35.754a4.216 4.216 0 0 1 4.215-4.216 4.216 4.216 0 0 1 4.216 4.216z" class="cls-32" data-name="Path 91" transform="translate(-106.156 -173.436)"/>
        </g>
        <g id="Group_12" data-name="Group 12" transform="translate(370.962 189.525)">
            <g class="cls-41" transform="translate(-288.11 -46.65)">
                <path id="Path_92-2" d="M386.252 195.445h-72.588a8.461 8.461 0 0 1-8.461-8.46 8.46 8.46 0 0 1 8.461-8.46h72.587a8.46 8.46 0 0 1 8.46 8.46 8.461 8.461 0 0 1-8.459 8.46z" class="cls-33" data-name="Path 92" transform="translate(6.06 -131.88)"/>
            </g>
            <g class="cls-40" transform="translate(-288.11 -46.65)">
                <path id="Path_93-2" d="M386.252 237.684h-72.588a8.46 8.46 0 0 1-8.461-8.46 8.46 8.46 0 0 1 8.461-8.46h72.587a8.46 8.46 0 0 1 8.46 8.46 8.46 8.46 0 0 1-8.459 8.46z" class="cls-27" data-name="Path 93" transform="translate(6.06 -118.84)"/>
            </g>
            <g class="cls-39" transform="translate(-288.11 -46.65)">
                <path id="Path_94-2" d="M368.556 216.565h-72.587a8.46 8.46 0 0 1-8.46-8.461 8.46 8.46 0 0 1 8.46-8.46h72.587a8.46 8.46 0 0 1 8.46 8.46 8.46 8.46 0 0 1-8.46 8.461z" class="cls-34" data-name="Path 94" transform="translate(.6 -125.36)"/>
            </g>
            <g id="Group_9" data-name="Group 9" transform="translate(36.9 5.937)">
                <path id="Path_95" d="M364.321 187.266h-46.51a2.1 2.1 0 0 1-2.1-2.1 2.1 2.1 0 0 1 2.1-2.1h46.51a2.1 2.1 0 0 1 2.1 2.1 2.1 2.1 0 0 1-2.1 2.1z" class="cls-27" data-name="Path 95" transform="translate(-315.708 -183.062)"/>
                <circle id="Ellipse_2" cx="2.102" cy="2.102" r="2.102" class="cls-27" data-name="Ellipse 2" transform="translate(55.948)"/>
            </g>
            <g id="Group_10" data-name="Group 10" transform="translate(16.887 33.994)">
                <path id="Path_96" d="M349.027 208.707h-46.51a2.1 2.1 0 0 1-2.1-2.1 2.1 2.1 0 0 1 2.1-2.1h46.51a2.1 2.1 0 0 1 2.1 2.1 2.1 2.1 0 0 1-2.1 2.1z" class="cls-33" data-name="Path 96" transform="translate(-300.414 -204.503)"/>
                <path id="Path_97" d="M347.375 206.6a2.1 2.1 0 1 1-2.1-2.1 2.1 2.1 0 0 1 2.1 2.1z" class="cls-33" data-name="Path 97" transform="translate(-287.221 -204.503)"/>
            </g>
            <g id="Group_11" data-name="Group 11" transform="translate(37.832 62.05)">
                <rect id="Rectangle_12" width="50.715" height="4.205" class="cls-29" data-name="Rectangle 12" rx="1.607"/>
                <path id="Path_98" d="M363.379 228.046a2.1 2.1 0 1 1-2.1-2.1 2.1 2.1 0 0 1 2.1 2.1z" class="cls-29" data-name="Path 98" transform="translate(-303.227 -225.943)"/>
            </g>
        </g>
        <g id="Group_14" data-name="Group 14" transform="translate(501.347 379.758)">
            <g id="Group_13" data-name="Group 13">
                <path id="Path_99" d="M396.9 369.223c2.624-3.025 5.944-5.636 6.99-9.454.766-2.789.161-5.741-.137-8.618s-.194-6.057 1.667-8.271c1.534-1.825 3.956-2.617 6.286-3.118s4.762-.818 6.829-2c3.358-1.925 2.689-5.2 4.491-8.071 2.023-3.223 6.729-7.335 10.763-5.194 4.271 2.266 3.595 9.148.754 12.187-1.886 2.016-4.3 3.951-4.576 6.7-.417 4.134 4.318 7.855 3.016 11.8-.963 2.914-4.635 3.915-6.45 6.391-1.794 2.45-1.433 5.881-.376 8.727s2.721 5.478 3.377 8.442c1.345 6.065-3.413 10.257-8.835 11.608-4.983 1.243-15.729.657-15.729.657a20.563 20.563 0 0 1-10.195-8.392 10.673 10.673 0 0 1-.58-9.265 15.477 15.477 0 0 1 2.705-4.129z" class="cls-26" data-name="Path 99" transform="translate(-385.218 -323.9)"/>
                <path id="Path_100" d="M425.415 329.352s-18.349 28.341-20.344 59.809" class="cls-35" data-name="Path 100" transform="translate(-381.618 -322.218)"/>
                <path id="Path_101" d="M412.916 366.655c2.4 5.242 1.49 17.062-3.75 19.462s-12.829-5.527-15.229-10.768-10.263-33.627-5.022-36.027 21.6 22.092 24.001 27.333z" class="cls-13" data-name="Path 101" transform="translate(-387.149 -319.193)"/>
                <path id="Line_1" d="M0 0l18.965 42.726" class="cls-36" data-name="Line 1" transform="translate(3.248 23.576)"/>
            </g>
            <path id="Path_102" d="M414.989 394.762h-10.353a2.177 2.177 0 0 1-2.1-1.593l-5.2-18.6h24.947l-5.2 18.6a2.177 2.177 0 0 1-2.094 1.593z" class="cls-11" data-name="Path 102" transform="translate(-384.004 -308.266)"/>
        </g>
        <g id="Group_17" data-name="Group 17" transform="translate(82.849 383.387)">
            <g id="Group_15" data-name="Group 15">
                <path id="Path_103" d="M85.467 326.678a4.042 4.042 0 0 1 2.537.915c.067.048.133.1.2.148 2.85 2.185 4.313 6.183 4.35 11.891A54.661 54.661 0 0 1 90.9 353.04a23.825 23.825 0 0 0-1.335-5.36 63.575 63.575 0 0 0-3.375-7.177c-.937-1.794-1.907-3.651-2.711-5.533a9.736 9.736 0 0 1-1.032-5.046c.225-1.524 1.414-3.156 3.02-3.246z" class="cls-37" data-name="Path 103" transform="translate(-62.688 -326.674)"/>
                <path id="Path_104" d="M69.762 339.31a4.04 4.04 0 0 1 2.684-.259c.082.016.164.031.245.05 3.511.755 6.544 3.742 9.019 8.885a54.662 54.662 0 0 1 4.246 12.827 23.709 23.709 0 0 0-3.5-4.274 63.705 63.705 0 0 0-6.12-5.043c-1.615-1.221-3.286-2.484-4.818-3.841a9.728 9.728 0 0 1-3.093-4.119c-.453-1.474-.076-3.456 1.337-4.226z" class="cls-37" data-name="Path 104" transform="translate(-67.054 -322.888)"/>
                <path id="Path_105" d="M67.419 352.792a2.761 2.761 0 0 1 1.213-1.387q.073-.047.145-.09c2.1-1.271 5.008-1.205 8.65.192a37.424 37.424 0 0 1 8.124 4.388 16.347 16.347 0 0 0-3.744-.484 43.511 43.511 0 0 0-5.408.361c-1.375.149-2.8.3-4.2.347a6.656 6.656 0 0 1-3.469-.6 2.5 2.5 0 0 1-1.311-2.727z" class="cls-37" data-name="Path 105" transform="translate(-67.334 -319.35)"/>
                <path id="Path_106" d="M82.864 381.615s14.3-18.842 3.6-52.357" class="cls-38" data-name="Path 106" transform="translate(-62.542 -325.877)"/>
                <path id="Path_107" d="M86.3 377.548s4.522-20.479-14.559-35.107" class="cls-38" data-name="Path 107" transform="translate(-65.975 -321.809)"/>
                <path id="Path_108" d="M85 355.62s-3.489-3.1-15.667-3.2" class="cls-38" data-name="Path 108" transform="translate(-66.718 -318.729)"/>
            </g>
            <g id="Group_16" data-name="Group 16" transform="translate(27.643 21.138)">
                <path id="Path_109" d="M106.558 346.295a6.936 6.936 0 0 1-2.468 2.713c-1.176.858-2.446 1.641-3.672 2.4a45.273 45.273 0 0 0-4.675 3.164 16.9 16.9 0 0 0-2.768 2.794 38.927 38.927 0 0 1 3.869-8.805c2.1-3.48 4.448-5.393 6.986-5.694l.177-.018a2.88 2.88 0 0 1 1.886.364 2.609 2.609 0 0 1 .665 3.082z" class="cls-37" data-name="Path 109" transform="translate(-87.065 -342.828)"/>
                <path id="Path_110" d="M111.13 359.808a6.921 6.921 0 0 1-3.39 1.395c-1.432.273-2.913.438-4.346.6a45.227 45.227 0 0 0-5.581.858 17 17 0 0 0-3.7 1.341 39 39 0 0 1 7.265-6.3c3.385-2.245 6.328-2.97 8.752-2.155.056.018.113.038.168.059a2.876 2.876 0 0 1 1.548 1.135 2.607 2.607 0 0 1-.716 3.067z" class="cls-37" data-name="Path 110" transform="translate(-86.713 -339.004)"/>
                <path id="Path_111" d="M105.248 367.385a4.728 4.728 0 0 1-2.341-.9c-.839-.535-1.654-1.148-2.44-1.739a30.828 30.828 0 0 0-3.179-2.188 11.539 11.539 0 0 0-2.467-1.066 26.646 26.646 0 0 1 6.568.27c2.736.471 4.539 1.489 5.363 3.031.02.035.038.071.055.107a1.96 1.96 0 0 1 .238 1.29 1.781 1.781 0 0 1-1.797 1.195z" class="cls-37" data-name="Path 111" transform="translate(-86.496 -337.094)"/>
                <path id="Path_112" d="M88.513 377.729S86.617 361 105.36 344.383" class="cls-38" data-name="Path 112" transform="translate(-88.459 -342.348)"/>
                <path id="Path_113" d="M88.5 373.683s4.683-14.177 21.682-16.186" class="cls-38" data-name="Path 113" transform="translate(-88.446 -338.301)"/>
                <path id="Path_114" d="M94.694 361.627s3.264-.629 10.75 3.744" class="cls-38" data-name="Path 114" transform="translate(-86.535 -337.036)"/>
            </g>
            <path id="Path_115" d="M97.8 391.506H85.125a2.668 2.668 0 0 1-2.57-1.95l-6.365-22.779h30.547l-6.365 22.779a2.669 2.669 0 0 1-2.572 1.95z" class="cls-11" data-name="Path 115" transform="translate(-64.602 -314.3)"/>
        </g>
    </g>
</svg>
