<svg xmlns="http://www.w3.org/2000/svg" width="1280" height="653.001" viewBox="0 0 1280 653.001">
    <defs>
        <style>
            .cls-1{fill:#3b62fe}.cls-2{fill:#f7f7f7}
        </style>
    </defs>
    <g id="header_bg">
        <path id="Rectangle_406" d="M0 0h1280v653H0z" class="cls-1" data-name="Rectangle 406"/>
        <path id="Subtraction_1" d="M-4960.88 696h-913.573v-.021L-5885 696V43h502.577a82.553 82.553 0 0 1 5.374 20.184 132.506 132.506 0 0 1 .908 25.717c-.149 2.779-6.432 99.017-6.59 100.956-1.327 87.857 29.619 124.149 59.546 159.245 7.206 8.45 14.657 17.189 21.371 26.409 3.608 4.955 6.74 9.673 9.572 14.422a151.817 151.817 0 0 1 8.324 15.987 153.314 153.314 0 0 1 11.389 38.929 202.726 202.726 0 0 1 2.307 24.071 271.069 271.069 0 0 1-.457 27.9 468.046 468.046 0 0 0-.675 53.941 265.944 265.944 0 0 0 5.444 43.077 151.512 151.512 0 0 0 11.041 33.092 104.82 104.82 0 0 0 7.456 13.07 87.475 87.475 0 0 0 8.659 10.91 78.134 78.134 0 0 0 14.155 11.934 80.229 80.229 0 0 0 16.241 8.14 96.155 96.155 0 0 0 18.144 4.657 127.435 127.435 0 0 0 19.862 1.483 174.106 174.106 0 0 0 19.154-1.117c6.422-.715 13.238-1.793 20.259-3.2 5.363-1.077 10.478-2.12 15.425-3.128l.144-.029c31.575-6.438 54.389-11.089 74.952-11.089a112.6 112.6 0 0 1 21.346 1.931 108.329 108.329 0 0 1 21.062 6.338c14.112 5.8 29.261 15.066 47.675 29.167l-10.543-.066V696z" class="cls-2" data-name="Subtraction 1" transform="translate(5885 -43)"/>
    </g>
</svg>
